<?xml version="1.0" encoding="UTF-8" standalone="no"?>
<svg
   version="1.1"
   id="Laag_1"
   x="0"
   y="0"
   width="81.800003"
   height="81.800003"
   xml:space="preserve"
   sodipodi:docname="wapen-echt-rood-icon.svg"
   inkscape:version="1.3 (0e150ed6c4, 2023-07-21)"
   xmlns:inkscape="http://www.inkscape.org/namespaces/inkscape"
   xmlns:sodipodi="http://sodipodi.sourceforge.net/DTD/sodipodi-0.dtd"
   xmlns="http://www.w3.org/2000/svg"
   xmlns:svg="http://www.w3.org/2000/svg"><defs
     id="defs7" /><sodipodi:namedview
     id="namedview7"
     pagecolor="#ffffff"
     bordercolor="#000000"
     borderopacity="0.25"
     inkscape:showpageshadow="2"
     inkscape:pageopacity="0.0"
     inkscape:pagecheckerboard="0"
     inkscape:deskcolor="#d1d1d1"
     inkscape:zoom="7.2392588"
     inkscape:cx="40.404689"
     inkscape:cy="40.68096"
     inkscape:window-width="2100"
     inkscape:window-height="1284"
     inkscape:window-x="2391"
     inkscape:window-y="22"
     inkscape:window-maximized="1"
     inkscape:current-layer="Middel" /><style
     id="style1">.st0{fill:#FFFFFF;fill-opacity:0;}.st1{fill:#c00}</style><g
     id="Middel"
     transform="translate(-22.77,-0.01)"><path
       class="st0"
       d="m 72.13,45.46 c 0.96,-0.47 1.84,-1.04 2.61,-1.7 0.17,-0.24 0.36,-0.42 0.58,-0.54 1.49,-1.52 2.42,-3.49 2.42,-5.9 v -2.15 c -0.06,0.02 -0.12,0.03 -0.19,0.03 -0.07,0 -0.14,-0.01 -0.21,-0.03 l -0.16,0.91 c -1.48,-0.28 -1.32,-1.75 -0.32,-2.25 0.57,-0.29 0.75,-0.5 0.58,-0.72 -0.05,-0.06 -0.11,-0.09 -0.18,-0.09 -0.21,0 -0.52,0.23 -0.82,0.45 -0.13,0.1 -0.3,0.15 -0.48,0.15 -0.39,0 -0.81,-0.25 -0.99,-0.84 l -0.52,0.29 c -0.09,-1.11 0.6,-1.66 1.3,-1.66 0.33,0 0.67,0.12 0.93,0.36 0.1,0.09 0.2,0.13 0.3,0.13 0.32,0 0.54,-0.4 0.11,-0.63 -0.41,-0.22 -0.8,-0.9 -0.42,-1.33 l -0.62,-0.58 c 0.28,-0.17 0.58,-0.25 0.86,-0.25 0.3,0 0.59,0.1 0.83,0.3 v -7.84 c -0.19,-0.04 -0.41,-0.23 -0.41,-0.5 0,-0.3 0.18,-0.48 0.41,-0.57 v -0.65 c -0.47,0.1 -0.82,0.39 -0.96,0.79 l -0.66,0.01 c -0.03,-0.5 0.21,-0.95 0.72,-1.12 v -0.65 c -0.43,0.09 -0.71,0.3 -0.88,0.49 -0.05,0.05 -0.09,0.11 -0.14,0.17 l -0.5,0.01 c -0.02,-0.48 0.22,-0.91 0.67,-1.06 v -0.3 H 51.53 v 0.3 c 0.46,0.15 0.7,0.58 0.67,1.06 L 51.7,19.54 C 51.66,19.48 51.61,19.43 51.56,19.37 51.39,19.19 51.1,18.98 50.68,18.88 v 0.65 c 0.5,0.17 0.74,0.62 0.72,1.12 l -0.66,-0.01 c -0.14,-0.4 -0.49,-0.68 -0.96,-0.79 v 0.65 c 0.23,0.09 0.4,0.27 0.4,0.57 0,0.26 -0.21,0.46 -0.4,0.5 v 7.83 c 0.24,-0.2 0.52,-0.29 0.82,-0.29 0.29,0 0.59,0.09 0.86,0.25 l -0.62,0.58 c 0.37,0.44 -0.02,1.11 -0.42,1.33 -0.43,0.23 -0.2,0.63 0.11,0.63 0.1,0 0.2,-0.04 0.3,-0.13 0.26,-0.24 0.6,-0.36 0.93,-0.36 0.7,0 1.39,0.54 1.3,1.66 l -0.54,-0.3 c -0.18,0.59 -0.6,0.84 -0.99,0.84 -0.18,0 -0.35,-0.05 -0.48,-0.15 -0.3,-0.22 -0.61,-0.45 -0.82,-0.45 -0.07,0 -0.14,0.03 -0.18,0.09 -0.16,0.22 0.01,0.44 0.58,0.72 1.01,0.5 1.17,1.97 -0.32,2.25 l -0.16,-0.91 c -0.07,0.02 -0.14,0.03 -0.21,0.03 -0.06,0 -0.12,-0.01 -0.18,-0.02 v 2.15 c 0,2.42 0.94,4.39 2.44,5.91 0.19,0.11 0.37,0.28 0.53,0.5 0.77,0.68 1.67,1.25 2.64,1.73 z"
       id="path1" /><path
       class="st1"
       d="M 74.28,18.19 H 53.27 l -0.29,0.61 h 21.46 z m 2.84,3.7 v 7.23 c 0.22,0.04 0.43,0.13 0.61,0.28 v -7.39 z m 0.22,13.28 -0.16,0.91 c -0.02,0 -0.04,-0.01 -0.06,-0.01 v 1.26 c 0,1.69 -0.5,3.23 -1.47,4.56 -0.24,0.32 -0.5,0.63 -0.79,0.93 L 51.07,19.01 c -0.11,-0.05 -0.24,-0.1 -0.39,-0.13 v 0.65 c 0.5,0.17 0.74,0.62 0.72,1.12 l -0.66,-0.01 c -0.14,-0.4 -0.49,-0.68 -0.96,-0.79 v 0.65 c 0.23,0.09 0.4,0.27 0.4,0.57 0,0.26 -0.21,0.46 -0.4,0.5 v 7.78 c 0.24,-0.2 0.53,-0.27 0.83,-0.27 0.29,0 0.58,0.11 0.85,0.27 l -0.62,0.58 c 0.37,0.44 -0.02,1.11 -0.42,1.33 -0.43,0.23 -0.2,0.63 0.11,0.63 0.1,0 0.2,-0.04 0.3,-0.13 0.26,-0.24 0.6,-0.36 0.93,-0.36 0.7,0 1.39,0.54 1.3,1.66 l -0.54,-0.3 c -0.18,0.59 -0.6,0.84 -0.99,0.84 -0.18,0 -0.35,-0.05 -0.48,-0.15 C 50.75,33.23 50.44,33 50.23,33 c -0.07,0 -0.14,0.03 -0.18,0.09 -0.16,0.22 0.01,0.44 0.58,0.72 0.96,0.48 1.15,1.86 -0.11,2.23 l -0.21,0.02 -0.16,-0.91 c -0.07,0.02 -0.14,0.03 -0.21,0.03 -0.06,0 -0.12,-0.01 -0.18,-0.02 v 2.15 c 0,2.13 0.73,3.91 1.92,5.34 0.01,0.01 0.02,0.02 0.02,0.03 0.04,0.05 0.09,0.1 0.13,0.15 l 0.03,0.03 c 0.05,0.06 0.1,0.11 0.15,0.17 0,0 0,0.01 0.01,0.01 0.05,0.06 0.11,0.11 0.16,0.17 l 0.01,0.01 c 0.07,0.04 0.13,0.09 0.19,0.14 0.12,0.1 0.24,0.22 0.34,0.36 0.77,0.68 1.67,1.25 2.64,1.73 0.11,0.06 0.22,0.12 0.34,0.17 1.6,0.8 3.94,1.67 8.03,1.67 4.09,0 6.43,-0.87 8.03,-1.67 0.12,-0.06 0.23,-0.12 0.34,-0.17 0.96,-0.47 1.84,-1.04 2.61,-1.7 l 0.06,-0.09 c 0.01,-0.01 0.02,-0.02 0.03,-0.04 0.01,-0.01 0.02,-0.03 0.04,-0.04 0.01,-0.02 0.03,-0.03 0.04,-0.05 0.01,-0.01 0.01,-0.02 0.02,-0.02 l 0.06,-0.06 0.01,-0.01 0.06,-0.06 0.01,-0.01 c 0.02,-0.02 0.05,-0.04 0.07,-0.06 0.05,-0.04 0.1,-0.07 0.15,-0.1 0.01,-0.01 0.02,-0.01 0.03,-0.02 1.49,-1.52 2.42,-3.49 2.42,-5.9 v -2.12 c -0.06,0.02 -0.12,0.03 -0.19,0.03 -0.04,0 -0.11,-0.01 -0.18,-0.03 z"
       id="path2" /><path
       class="st0"
       d="m 78.15,11.4 c 0,-0.11 -0.01,-0.21 -0.02,-0.32 h -1.51 c -0.01,0.86 -0.23,1.69 -0.61,2.34 -0.26,0.44 -0.57,0.77 -0.92,0.97 h 0.11 c 1.63,0.01 2.95,-1.33 2.95,-2.99 z m -1.53,5.73 C 76.5,17.11 76.39,17.1 76.27,17.1 c -0.09,0 -0.18,0.01 -0.27,0.02 -0.28,0.03 -0.56,0.12 -0.78,0.28 -0.25,0.18 -0.43,0.48 -0.44,0.8 h 0.47 c 0.21,-0.17 0.46,-0.29 0.73,-0.35 v 0.65 c -0.46,0.15 -0.7,0.58 -0.67,1.06 l 0.5,-0.01 c 0.04,-0.06 0.09,-0.11 0.14,-0.17 0.17,-0.18 0.46,-0.39 0.88,-0.49 v 0.65 c -0.5,0.17 -0.74,0.62 -0.72,1.12 l 0.66,-0.01 c 0.15,-0.42 0.52,-0.71 1.02,-0.8 v 0.64 c -0.26,0.08 -0.47,0.26 -0.47,0.59 0,0.29 0.26,0.5 0.47,0.5 l -0.02,0.55 h 0.01 c 0.14,0 0.26,-0.04 0.39,-0.1 0.41,-0.22 0.57,-0.7 0.56,-1.14 l 0.6,-0.29 c 0,0.02 0.01,0.04 0.01,0.07 0.05,0.37 0,0.73 -0.12,1.04 l 1.13,1.07 c 0.22,-0.54 0.51,-1.05 0.86,-1.52 0.13,-0.16 0.26,-0.32 0.4,-0.46 -0.49,-0.37 -1.09,-0.83 -1.29,-0.98 -0.63,-0.47 -1.21,-0.99 -1.81,-1.5 -0.37,-0.31 -0.75,-0.62 -1.15,-0.89 -0.23,-0.15 -0.48,-0.25 -0.74,-0.3 z m 10.49,19.85 c 0.09,0.05 0.18,0.07 0.27,0.07 0.22,0 0.43,-0.12 0.55,-0.31 -0.02,-0.11 -0.06,-0.23 -0.09,-0.34 -0.1,-0.3 -0.25,-0.59 -0.46,-0.87 -0.27,-0.36 -0.63,-0.69 -1.11,-0.96 -0.07,-0.04 -0.15,-0.09 -0.24,-0.14 0.32,0.39 0.51,0.67 0.63,0.91 0.13,0.24 0.19,0.43 0.28,0.61 -0.03,0.03 -0.05,0.06 -0.07,0.09 -0.22,0.33 -0.09,0.77 0.24,0.94 z M 40.84,35.33 c 0.12,-0.23 0.31,-0.52 0.63,-0.91 -0.08,0.05 -0.17,0.1 -0.24,0.14 -0.48,0.27 -0.84,0.6 -1.11,0.96 -0.21,0.28 -0.35,0.58 -0.46,0.87 -0.04,0.11 -0.07,0.23 -0.09,0.34 0.12,0.19 0.33,0.31 0.55,0.31 0.09,0 0.18,-0.02 0.27,-0.07 0.33,-0.17 0.46,-0.61 0.23,-0.95 -0.02,-0.03 -0.04,-0.06 -0.07,-0.09 0.1,-0.17 0.16,-0.36 0.29,-0.6 z M 82.27,17.59 c 0.12,0 0.25,-0.01 0.38,-0.02 -0.39,-0.14 -0.7,-0.37 -0.9,-0.69 -0.28,-0.43 -0.32,-0.89 -0.21,-1.3 -0.02,0 -0.04,0.01 -0.06,0.01 -0.47,0.1 -0.71,0.46 -0.62,0.94 0.13,0.72 0.58,1.06 1.41,1.06 z M 87.98,37.8 C 87.99,37.7 88,37.6 88,37.49 c -0.19,0.11 -0.41,0.17 -0.63,0.17 -0.2,0 -0.38,-0.05 -0.56,-0.14 -0.35,-0.18 -0.59,-0.51 -0.66,-0.9 -0.05,-0.25 -0.02,-0.51 0.08,-0.74 0,0 0,-0.01 -0.01,-0.01 -0.27,-0.05 -0.57,-0.09 -0.9,-0.13 -0.55,-0.06 -1.05,-0.09 -1.51,-0.09 -4.3,0 -4.65,2.36 -4.65,2.36 -0.67,2.51 1.34,3.64 1.34,3.64 0,0 0.46,2.29 -0.56,3.16 l -1.06,-0.36 -0.53,-0.18 -0.3,-0.1 c -0.48,-0.68 -1.26,-1.16 -2,-1.16 -0.72,0 -1.41,0.46 -1.75,1.65 l 0.75,-0.16 c 0,0.77 0.25,0.97 0.64,0.97 0.08,0 0.17,-0.01 0.26,-0.02 0.11,-0.02 0.22,-0.04 0.34,-0.06 0.37,-0.07 0.64,-0.15 0.83,-0.15 0.18,0 0.3,0.07 0.37,0.26 0.1,0.29 -0.18,0.47 -0.54,0.56 -0.88,0.2 -1.38,0.82 -1.22,1.65 0.04,0.19 0.1,0.38 0.21,0.59 0.04,0.09 0.09,0.17 0.15,0.26 0,0 0.01,0 0.01,0.01 l 0.87,-0.53 c 0.13,0.13 0.28,0.18 0.43,0.18 0.33,0 0.65,-0.24 0.77,-0.45 l 0.03,-0.06 c 0.1,-0.2 0.11,-0.43 0.11,-0.64 0,-0.12 -0.01,-0.24 -0.01,-0.35 0,-0.13 0,-0.24 0.03,-0.32 0.05,-0.16 0.18,-0.27 0.32,-0.33 0.05,-0.02 0.11,-0.03 0.16,-0.03 0.09,0 0.18,0.03 0.26,0.09 0.21,0.15 0.21,0.38 0.18,0.61 -0.03,0.24 -0.07,0.46 0.06,0.66 0.01,0.02 0.02,0.03 0.03,0.05 0.05,0.06 0.11,0.12 0.17,0.17 0.04,0.03 0.22,0.16 0.22,0.21 l -0.09,1.06 c 0.56,-0.04 1.18,-0.16 1.48,-0.67 0.06,-0.1 0.11,-0.23 0.14,-0.36 0.11,-0.39 0.16,-0.87 0.22,-1.54 0.25,-0.1 0.47,-0.23 0.66,-0.4 0.24,-0.21 0.43,-0.47 0.54,-0.8 0.3,-0.9 0.56,-2.7 0.16,-4.6 0,0 4.03,-0.5 4.9,-0.94 0.08,-0.61 0.16,-1.22 0.24,-1.78 z M 84.43,14.6 c 0,0 -0.55,0.33 -0.44,0.85 0.18,0.38 0.41,0.77 0.7,1.11 L 85.25,16 c 0.66,-0.61 1.24,-0.83 1.72,-0.83 0.63,0 1.07,0.4 1.25,0.86 0.28,0.7 0.25,1.26 0.15,1.62 -0.08,0.27 -0.3,0.49 -0.8,0.53 -0.09,0.01 -0.19,0.01 -0.29,0.01 -1.03,0 -2.38,-0.37 -2.38,-0.37 -0.21,1.12 -0.34,1.34 1.26,1.34 0.37,0 0.83,-0.01 1.4,-0.03 l -1.6,0.73 c -0.18,-0.01 -0.35,-0.02 -0.52,-0.02 -1.18,0 -2.12,0.35 -2.86,0.92 -0.17,0.13 -0.33,0.27 -0.48,0.42 -0.57,0.58 -0.98,1.3 -1.27,2.06 -0.08,0.22 -0.15,0.44 -0.21,0.66 -0.31,1.16 -0.35,2.37 -0.19,3.34 0.12,-0.15 0.24,-0.29 0.38,-0.43 l 0.07,-0.07 c 0.48,-0.47 1.29,-1.28 2.26,-1.78 0.36,-0.32 0.7,-0.64 1.03,-0.99 0.71,-0.75 1.34,-1.58 1.81,-2.52 -0.29,1.01 -0.78,1.98 -1.36,2.87 -0.23,0.35 -0.47,0.69 -0.72,1.02 -0.22,0.09 -0.42,0.19 -0.62,0.31 -0.85,0.48 -1.57,1.22 -1.99,1.64 -0.25,0.24 -0.45,0.51 -0.64,0.79 -0.15,0.22 -0.28,0.44 -0.42,0.67 -0.1,0.17 -0.21,0.35 -0.31,0.52 -0.45,0.73 -1.05,1.45 -1.39,1.45 -0.12,0 -0.21,-0.09 -0.25,-0.29 -0.18,-0.91 -0.75,-1.31 -1.37,-1.31 -0.29,0 -0.59,0.09 -0.86,0.25 l 0.62,0.58 c -0.37,0.44 0.02,1.11 0.42,1.33 0.43,0.23 0.2,0.63 -0.11,0.63 -0.1,0 -0.2,-0.04 -0.3,-0.13 -0.26,-0.24 -0.6,-0.36 -0.93,-0.36 -0.7,0 -1.39,0.54 -1.3,1.66 l 0.54,-0.3 c 0.18,0.59 0.6,0.84 0.99,0.84 0.18,0 0.35,-0.05 0.48,-0.15 0.3,-0.22 0.61,-0.45 0.82,-0.45 0.07,0 0.14,0.03 0.18,0.09 0.16,0.22 -0.01,0.44 -0.58,0.72 -1.01,0.5 -1.17,1.97 0.32,2.25 l 0.16,-0.91 c 0.07,0.02 0.14,0.03 0.21,0.03 0.43,0 0.73,-0.38 0.78,-0.66 0.07,-0.41 0.05,-0.66 0.07,-0.92 0.01,-0.23 0.16,-0.33 0.31,-0.33 0.18,0 0.36,0.13 0.38,0.36 0.03,0.43 0.02,0.99 0.78,1.12 l 0.24,0.77 c 0.72,-0.25 1.44,-1.08 0.13,-2.48 -0.02,-0.71 0.73,-1.12 1.78,-1.71 0.18,-0.1 0.37,-0.21 0.56,-0.32 l 0.3,-0.18 c 0.21,-0.13 1.02,-0.72 1.73,-1.33 l 0.62,0.33 c -0.13,0.11 -0.27,0.23 -0.43,0.37 -0.64,0.53 -1.33,1.05 -1.59,1.2 l -0.15,0.09 c 0.68,0.63 1.41,1.18 2.07,1.62 0.27,0.18 0.53,0.35 0.77,0.5 0.24,0.15 0.47,0.28 0.66,0.39 0.53,0.3 0.95,0.67 1.27,1.09 0.21,0.27 0.37,0.56 0.49,0.85 0.12,0.28 0.2,0.57 0.24,0.86 0.02,0.1 0.03,0.19 0.04,0.29 0.02,0.27 0.01,0.53 -0.02,0.78 -0.04,0.27 -0.07,0.54 -0.11,0.81 -0.05,0.41 -0.09,0.81 -0.12,1.22 -0.04,0.48 -0.06,0.95 -0.06,1.42 0,1.44 0.22,2.47 1.22,3.45 0.72,0.71 1.73,0.88 2.71,0.95 0.51,0.03 1.94,0.24 2.91,0.39 0.56,0.08 0.98,0.55 1.01,1.12 0.04,0.77 0.03,1.78 -0.24,2.12 L 94.6,49.19 c -0.31,-0.46 -1.05,-0.82 -1.77,-0.82 -0.56,0 -1.11,0.22 -1.42,0.8 -0.09,0.17 -0.17,0.37 -0.21,0.61 -0.01,0.07 -0.02,0.14 -0.03,0.22 l 0.42,-0.17 0.24,-0.1 c 0.01,0.06 0.02,0.11 0.03,0.16 0.14,0.58 0.44,0.79 0.8,0.79 0.17,0 0.35,-0.05 0.54,-0.12 0.02,-0.01 0.04,-0.02 0.07,-0.03 0.34,-0.14 0.58,-0.25 0.76,-0.25 0.12,0 0.21,0.05 0.29,0.19 0.11,0.19 0,0.35 -0.19,0.48 -0.06,0.04 -0.14,0.08 -0.21,0.11 -1.01,0.42 -1.3,1.4 -0.37,2.42 l 0.7,-0.62 c 0.11,0.07 0.22,0.1 0.32,0.1 0.34,0 0.65,-0.31 0.73,-0.54 0.13,-0.35 -0.01,-0.75 -0.06,-1.04 -0.01,-0.08 -0.02,-0.16 -0.01,-0.22 0.02,-0.16 0.13,-0.29 0.26,-0.36 0.06,-0.03 0.12,-0.05 0.19,-0.05 0.06,0 0.12,0.01 0.18,0.04 0.06,0.03 0.11,0.07 0.15,0.12 0.09,0.11 0.11,0.26 0.11,0.41 0,0.08 0,0.17 0.01,0.25 0.02,0.14 0.06,0.27 0.18,0.38 0.06,0.05 0.12,0.09 0.18,0.13 0.04,0.02 0.23,0.11 0.24,0.15 l 0.09,0.98 c 0.7,-0.17 1.47,-0.51 1.28,-1.6 -0.03,-0.18 -0.09,-0.39 -0.19,-0.62 -0.03,-0.08 -0.07,-0.17 -0.12,-0.26 0.61,-0.3 1.01,-0.87 1.11,-1.54 0.09,-0.61 -0.01,-2.78 -0.08,-4.02 -0.03,-0.5 -0.41,-0.91 -0.9,-0.98 -0.56,-0.08 -1.28,-0.19 -1.81,-0.3 -0.84,-0.18 -1.65,-0.55 -1.84,-1.15 -0.16,-0.52 -0.07,-0.58 -0.02,-1.11 0.04,-0.41 0.09,-0.83 0.12,-1.24 0,-0.06 0.01,-0.13 0.01,-0.19 0.01,-0.24 0,-0.49 -0.03,-0.73 l 0.15,0.09 c 0.16,0.09 0.33,0.15 0.5,0.2 0.19,0.05 0.38,0.07 0.58,0.07 0.42,0 0.83,-0.11 1.2,-0.34 0.67,-0.41 1.06,-1.12 1.04,-1.9 C 97.79,36.2 97,35.22 96.24,34.27 95.88,33.82 95.5,33.35 95.22,32.85 c -0.89,-1.6 -1.1,-3.34 -0.62,-5.17 0.21,-0.8 0.69,-1.52 1.2,-2.29 0.19,-0.29 0.37,-0.56 0.55,-0.86 0,0 0.4,0.18 0.66,0.12 0.07,-0.02 0.14,-0.05 0.22,-0.1 0.61,-0.38 1.26,-1.93 1.23,-3.79 -0.02,-1.48 -0.37,-2.71 -1.06,-3.72 0.15,0.42 0.28,0.86 0.36,1.3 0.09,0.48 0.12,0.98 0.09,1.46 -0.03,0.49 -0.13,0.96 -0.29,1.4 0.07,-0.47 0.07,-0.94 0.01,-1.4 -0.06,-0.46 -0.18,-0.9 -0.35,-1.32 -0.15,-0.37 -0.33,-0.73 -0.54,-1.07 0.14,0.86 0.14,1.73 -0.09,2.81 -0.14,0.67 -0.43,1.31 -0.68,1.87 -0.23,0.51 -0.4,0.92 -0.47,1.26 -0.08,0.37 -0.03,0.65 0.22,0.88 -0.04,0.07 -0.09,0.14 -0.13,0.21 -0.11,0.17 -0.23,0.35 -0.35,0.53 -0.52,0.79 -1.06,1.6 -1.3,2.52 -0.52,2 -0.28,3.98 0.69,5.73 0.31,0.56 0.71,1.05 1.09,1.53 0.71,0.89 1.39,1.73 1.42,2.87 0.01,0.52 -0.24,0.97 -0.68,1.24 -0.46,0.28 -1.01,0.3 -1.48,0.07 C 94.91,38.92 94.89,38.92 94.88,38.91 94.52,38.72 94.2,38.36 94.01,37.94 94,37.92 94,37.9 93.99,37.88 93.76,37.21 93.48,36.55 93.16,35.92 92.22,34.04 91.05,32.28 90.31,30.3 c -0.64,-1.7 -0.35,-3.77 -0.35,-3.77 0.65,0.26 1.6,0.29 1.6,0.29 -0.03,-2.12 4.52,-7.04 1.75,-13.04 -0.19,0.31 -0.44,0.63 -0.79,0.96 l -0.25,0.24 v -0.87 c 1.45,-1.5 0.78,-2.93 0.24,-3.41 -0.41,0.15 -0.88,0.6 -1.23,1.15 l -0.61,-0.2 c 0.15,-0.25 0.32,-0.49 0.51,-0.71 -0.06,-0.04 -0.12,-0.07 -0.19,-0.08 -0.03,0 -0.07,-0.01 -0.12,-0.01 -0.91,0 -4.33,0.79 -4.67,0.97 l -0.27,0.92 c -0.93,0.25 -1.79,0.75 -2.4,1.08 0.05,0.26 0.33,0.85 0.9,0.78 z m 6.79,5.87 c 0.25,-0.69 0.45,-1.4 0.61,-2.12 -0.08,0.74 -0.19,1.47 -0.36,2.2 -0.17,0.73 -0.4,1.44 -0.67,2.14 -0.27,0.7 -0.58,1.38 -0.9,2.05 -0.26,0.53 -0.53,1.05 -0.8,1.57 -0.25,-0.08 -0.55,-0.21 -0.88,-0.4 0.77,-1.11 1.51,-2.24 2.13,-3.43 0.33,-0.65 0.63,-1.32 0.87,-2.01 z m -2.63,1.09 c -0.16,0.48 -0.32,0.97 -0.52,1.45 -0.2,0.48 -0.45,0.95 -0.71,1.39 l -0.48,0.81 C 86.54,25.09 86.2,25.02 85.87,25 c 0.29,-0.34 0.59,-0.69 0.87,-1.03 0.32,-0.39 0.61,-0.78 0.88,-1.19 0.26,-0.42 0.5,-0.86 0.73,-1.31 0.23,-0.45 0.45,-0.91 0.68,-1.36 -0.14,0.48 -0.29,0.97 -0.44,1.45 z m -0.2,-8.65 c -0.7,0.69 -0.93,1.11 -0.93,1.11 -0.93,0.04 -1.13,-0.55 -1.13,-1.13 0.91,0.25 2.06,0.02 2.06,0.02 z m -12.4,2.12 H 51.55 v 1.46 c 0.33,0.03 0.75,0.14 1.12,0.4 0.42,0.31 0.68,0.79 0.69,1.28 v 0.02 h 20.79 v -0.02 c 0.01,-0.49 0.27,-0.97 0.69,-1.28 0.38,-0.28 0.82,-0.38 1.15,-0.41 z m -19.32,2.63 -2.01,-1 2.01,-1 2.01,1 z m 7.09,-0.11 c -0.98,0 -1.78,-0.4 -1.78,-0.89 0,-0.49 0.8,-0.89 1.78,-0.89 0.98,0 1.78,0.4 1.78,0.89 0,0.49 -0.8,0.89 -1.78,0.89 z m 7.09,0.11 -2.01,-1 2.01,-1 2.01,1 z M 49.98,45.5 c 0.07,-0.19 0.19,-0.26 0.37,-0.26 0.19,0 0.46,0.07 0.83,0.15 0.12,0.02 0.23,0.04 0.34,0.06 0.09,0.01 0.18,0.02 0.26,0.02 0.39,0 0.64,-0.19 0.64,-0.97 l 0.75,0.16 c -0.34,-1.19 -1.03,-1.65 -1.75,-1.65 -0.74,0 -1.52,0.49 -2,1.16 l -0.3,0.1 -0.51,0.2 -1.06,0.36 c -1.03,-0.87 -0.56,-3.16 -0.56,-3.16 0,0 2.01,-1.13 1.34,-3.64 0,0 -0.35,-2.36 -4.65,-2.36 -0.46,0 -0.96,0.03 -1.51,0.09 -0.33,0.04 -0.63,0.08 -0.9,0.13 0,0 0,0.01 -0.01,0.01 0.1,0.23 0.13,0.49 0.08,0.74 -0.07,0.39 -0.31,0.72 -0.66,0.9 -0.17,0.09 -0.36,0.14 -0.56,0.14 -0.22,0 -0.43,-0.06 -0.63,-0.17 0,0.11 0.01,0.21 0.02,0.31 0.08,0.56 0.16,1.16 0.21,1.79 0.87,0.44 4.9,0.94 4.9,0.94 -0.39,1.9 -0.14,3.7 0.16,4.6 0.11,0.33 0.3,0.59 0.54,0.8 0.19,0.17 0.41,0.3 0.66,0.4 0.05,0.66 0.1,1.15 0.22,1.54 0.03,0.14 0.08,0.26 0.14,0.36 0.3,0.51 0.92,0.63 1.48,0.67 l -0.09,-1.06 c 0,-0.05 0.19,-0.18 0.22,-0.21 0.06,-0.05 0.12,-0.11 0.17,-0.17 0.01,-0.02 0.02,-0.03 0.03,-0.05 0.13,-0.21 0.09,-0.43 0.06,-0.66 -0.03,-0.23 -0.03,-0.46 0.18,-0.61 0.08,-0.06 0.17,-0.09 0.26,-0.09 0.06,0 0.11,0.01 0.16,0.03 0.14,0.05 0.27,0.17 0.32,0.33 0.03,0.08 0.03,0.19 0.03,0.32 0,0.11 -0.01,0.23 -0.01,0.35 0,0.21 0.02,0.44 0.11,0.64 l 0.03,0.06 c 0.12,0.2 0.44,0.45 0.77,0.45 0.15,0 0.3,-0.05 0.43,-0.18 l 0.87,0.53 c 0,0 0.01,0 0.01,-0.01 0.06,-0.09 0.1,-0.18 0.15,-0.26 0.1,-0.21 0.17,-0.4 0.21,-0.59 0.16,-0.84 -0.34,-1.45 -1.22,-1.65 -0.34,-0.11 -0.63,-0.29 -0.53,-0.59 z m 32.74,4.63 c -0.24,-0.37 -0.53,-0.63 -0.8,-0.83 -0.1,-0.06 -0.2,-0.11 -0.31,-0.17 l -0.28,-0.14 c -0.48,0.41 -1.13,0.51 -1.61,0.54 l -0.73,0.05 0.06,-0.73 0.06,-0.76 c -0.08,-0.07 -0.16,-0.15 -0.24,-0.25 0,-0.01 -0.01,-0.01 -0.01,-0.02 -0.03,0.09 -0.07,0.18 -0.12,0.26 -0.22,0.38 -0.74,0.76 -1.31,0.76 -0.15,0 -0.29,-0.03 -0.43,-0.08 l -0.33,0.2 c 0.02,0.02 0.05,0.04 0.07,0.06 1.07,0.99 1.87,1.1 3.23,1.41 0.92,0.21 1.78,0.74 2.07,1.69 0.17,0.55 0.14,1.15 0.11,1.72 0,0 1.88,-1.07 0.88,-3.18 -0.08,-0.15 -0.19,-0.34 -0.31,-0.53 z M 69.89,49.4 C 69.3,48.8 68.67,48.29 68.04,47.99 67.52,47.74 67,47.57 66.51,47.46 66.19,47.39 65.88,47.34 65.59,47.31 65.42,47.29 65.26,47.28 65.1,47.27 c -0.42,0.02 -0.87,0.03 -1.34,0.03 -0.47,0 -0.92,-0.01 -1.34,-0.03 -0.16,0.01 -0.32,0.02 -0.5,0.04 -0.29,0.03 -0.6,0.08 -0.92,0.15 -0.49,0.11 -1.01,0.28 -1.53,0.53 -0.63,0.31 -1.26,0.81 -1.85,1.41 -0.04,0.04 -0.07,0.07 -0.1,0.11 -1.28,1.39 -0.94,2.75 -0.94,2.75 0,0 1.64,-2.18 4.09,-2.18 1.17,0 2.18,0.39 2.7,0.65 l 0.38,0.2 0.38,-0.2 c 0.52,-0.25 1.53,-0.65 2.7,-0.65 2.45,0 4.09,2.18 4.09,2.18 0,0 0.35,-1.36 -0.94,-2.75 -0.02,-0.03 -0.05,-0.07 -0.09,-0.11 z M 57.17,48.96 c 0.97,-0.98 2.04,-1.6 3.01,-1.93 -0.88,-0.14 -1.63,-0.32 -2.3,-0.53 -0.07,0 -0.14,-0.01 -0.21,-0.01 -0.21,0 -0.42,0.01 -0.61,0.03 -0.56,0.07 -1.09,0.17 -1.6,0.17 -1.33,0 -2.5,-0.2 -3.45,-0.46 0.1,0.13 0.19,0.27 0.25,0.43 0.15,0.37 0.18,0.79 0.09,1.22 0.04,0.01 0.07,0.02 0.11,0.03 0.18,0.04 0.35,0.08 0.49,0.1 0.27,0.05 0.43,0.06 0.43,0.06 0,0 -0.24,0.13 -0.58,0.36 -0.41,0.28 -0.96,0.7 -1.43,1.21 -2.21,2.43 0.23,4.27 0.23,4.27 0,0 -0.54,-2.39 0.61,-3.15 1.84,-1.2 2.82,-0.17 4.88,-1.74 0.03,0 0.05,-0.03 0.08,-0.06 z m -6.33,0.02 -0.33,-0.2 c -0.13,0.05 -0.28,0.08 -0.43,0.08 -0.58,0 -1.1,-0.38 -1.31,-0.76 -0.05,-0.09 -0.09,-0.17 -0.12,-0.26 0,0.01 -0.01,0.01 -0.01,0.02 -0.08,0.1 -0.16,0.18 -0.24,0.25 l 0.06,0.76 0.06,0.73 -0.73,-0.05 c -0.48,-0.03 -1.12,-0.13 -1.61,-0.54 l -0.28,0.14 c -0.11,0.06 -0.21,0.11 -0.31,0.17 -0.28,0.2 -0.56,0.46 -0.8,0.83 -0.13,0.19 -0.23,0.37 -0.31,0.55 -1,2.11 0.88,3.18 0.88,3.18 -0.03,-0.57 -0.05,-1.17 0.11,-1.72 0.29,-0.95 1.15,-1.47 2.07,-1.69 1.37,-0.32 2.16,-0.42 3.23,-1.41 0.03,-0.04 0.05,-0.06 0.07,-0.08 z m 23.87,-0.53 c -0.34,-0.23 -0.58,-0.36 -0.58,-0.36 0,0 0.17,-0.02 0.43,-0.06 0.14,-0.02 0.31,-0.06 0.49,-0.1 0.03,-0.01 0.07,-0.02 0.11,-0.03 -0.09,-0.43 -0.06,-0.85 0.09,-1.22 0.06,-0.15 0.15,-0.3 0.25,-0.43 -0.95,0.26 -2.12,0.46 -3.45,0.46 -0.51,0 -1.04,-0.11 -1.6,-0.17 -0.19,-0.02 -0.4,-0.03 -0.61,-0.03 h -0.2 c -0.67,0.21 -1.43,0.39 -2.3,0.53 0.97,0.33 2.04,0.94 3.01,1.93 0.03,0.03 0.05,0.05 0.07,0.08 2.06,1.57 3.04,0.54 4.88,1.74 1.15,0.75 0.61,3.15 0.61,3.15 0,0 2.43,-1.84 0.23,-4.27 -0.47,-0.52 -1.03,-0.95 -1.43,-1.22 z m 24.01,3.11 c 0.07,0.43 0.03,0.81 -0.13,1.15 -0.34,0.72 -1.09,0.98 -1.62,1.12 l -0.71,0.18 -0.07,-0.73 -0.07,-0.68 c -0.06,-0.04 -0.13,-0.09 -0.19,-0.14 -0.01,0.06 -0.03,0.12 -0.05,0.18 -0.17,0.47 -0.71,0.95 -1.32,0.95 -0.06,0 -0.12,0 -0.18,-0.01 l -0.43,0.38 -0.46,0.41 -0.42,-0.46 c -0.59,-0.64 -0.83,-1.36 -0.68,-2.02 0.05,-0.21 0.13,-0.41 0.25,-0.59 -0.37,0 -0.7,-0.14 -0.95,-0.4 -0.09,-0.1 -0.18,-0.21 -0.24,-0.34 l -0.04,0.01 -0.97,0.4 0.11,-1.04 c 0,-0.04 0.01,-0.07 0.01,-0.11 -0.43,0.07 -0.95,0.23 -1.61,0.48 -0.09,0.05 -0.19,0.09 -0.28,0.12 -0.05,0.02 -0.09,0.04 -0.14,0.05 0.21,0.12 0.42,0.24 0.61,0.36 0.95,0.61 1.6,1.27 1.94,1.96 0.21,0.22 0.44,0.46 0.69,0.73 1.03,1.1 2.42,1.61 3.85,1.61 2.45,0 4.98,-1.51 5.87,-4.17 -0.01,0.01 -1.22,0.42 -2.77,0.6 z m -9.97,-0.22 c -1.27,-0.8 -2.67,-1.25 -2.67,-1.25 0.25,0.02 0.48,0.03 0.7,0.03 0.55,0 1,-0.07 1.37,-0.18 0.21,-0.06 0.4,-0.14 0.56,-0.22 1.17,-0.6 1.21,-1.67 1.21,-1.67 -0.93,0.63 -1.75,0.85 -2.51,0.85 -0.98,0 -1.87,-0.35 -2.78,-0.61 -0.27,-0.08 -0.54,-0.11 -0.8,-0.11 -0.75,0 -1.4,0.28 -1.77,0.48 0.47,0.29 0.87,0.66 1.18,1.13 0.12,0.19 0.23,0.38 0.32,0.56 0.3,0.41 0.49,0.77 0.79,1.01 0.69,0.58 1.65,0.7 2.52,0.76 2.64,0.2 3.72,2.58 3.72,2.58 0.22,-0.55 0.18,-1.07 -0.03,-1.54 -0.33,-0.72 -1.04,-1.33 -1.81,-1.82 z M 45.44,48.66 c -0.37,-0.2 -1.01,-0.48 -1.77,-0.48 -0.26,0 -0.52,0.03 -0.8,0.11 -0.92,0.26 -1.8,0.61 -2.78,0.61 -0.76,0 -1.58,-0.21 -2.51,-0.85 0,0 0.05,1.07 1.21,1.67 0.16,0.08 0.35,0.16 0.56,0.22 0.37,0.11 0.83,0.18 1.37,0.18 0.22,0 0.45,-0.01 0.7,-0.03 0,0 -1.4,0.45 -2.67,1.25 -0.77,0.49 -1.48,1.1 -1.8,1.82 -0.21,0.47 -0.25,0.98 -0.03,1.54 0,0 1.07,-2.38 3.72,-2.58 0.87,-0.07 1.82,-0.19 2.52,-0.76 0.3,-0.25 0.49,-0.61 0.79,-1.01 0.09,-0.19 0.2,-0.37 0.32,-0.56 0.3,-0.47 0.7,-0.85 1.17,-1.13 z m -15.72,2.08 c -0.04,0.09 -0.08,0.18 -0.12,0.26 -0.09,0.23 -0.16,0.43 -0.19,0.62 -0.2,1.09 0.58,1.43 1.28,1.6 l 0.09,-0.98 c 0.01,-0.04 0.2,-0.13 0.24,-0.15 0.06,-0.04 0.13,-0.08 0.18,-0.13 0.12,-0.11 0.16,-0.24 0.18,-0.38 0.01,-0.08 0.01,-0.16 0.01,-0.25 0.01,-0.15 0.03,-0.3 0.11,-0.41 0.04,-0.05 0.08,-0.09 0.15,-0.12 0.06,-0.03 0.12,-0.04 0.18,-0.04 0.07,0 0.13,0.02 0.19,0.05 0.13,0.07 0.24,0.2 0.26,0.36 0.01,0.06 0,0.14 -0.01,0.22 -0.05,0.29 -0.19,0.69 -0.06,1.04 0.08,0.23 0.39,0.54 0.73,0.54 0.11,0 0.21,-0.03 0.32,-0.1 l 0.7,0.62 c 0.93,-1.02 0.64,-2 -0.37,-2.42 -0.08,-0.03 -0.15,-0.07 -0.21,-0.11 -0.19,-0.13 -0.3,-0.3 -0.19,-0.48 0.08,-0.14 0.17,-0.19 0.29,-0.19 0.18,0 0.41,0.11 0.76,0.25 0.02,0.01 0.04,0.02 0.07,0.03 0.19,0.07 0.37,0.12 0.54,0.12 0.36,0 0.65,-0.21 0.8,-0.79 0.01,-0.05 0.02,-0.11 0.03,-0.16 l 0.24,0.1 0.42,0.17 c -0.01,-0.07 -0.02,-0.15 -0.03,-0.22 -0.04,-0.24 -0.12,-0.44 -0.21,-0.61 -0.31,-0.57 -0.86,-0.8 -1.42,-0.8 -0.72,0 -1.46,0.36 -1.77,0.82 l -1.32,0.18 c -0.27,-0.34 -0.28,-1.34 -0.24,-2.12 0.03,-0.57 0.45,-1.03 1.01,-1.12 0.96,-0.14 2.4,-0.35 2.91,-0.39 0.97,-0.07 1.98,-0.24 2.71,-0.95 1,-0.99 1.22,-2.02 1.22,-3.45 0,-0.47 -0.02,-0.94 -0.06,-1.42 -0.03,-0.41 -0.08,-0.82 -0.12,-1.22 -0.03,-0.27 -0.07,-0.54 -0.11,-0.81 -0.04,-0.25 -0.04,-0.52 -0.02,-0.78 0.01,-0.1 0.02,-0.19 0.04,-0.29 0.05,-0.29 0.13,-0.57 0.24,-0.86 0.12,-0.3 0.29,-0.58 0.49,-0.85 0.32,-0.42 0.74,-0.79 1.27,-1.09 0.19,-0.11 0.42,-0.24 0.66,-0.39 0.24,-0.15 0.5,-0.31 0.77,-0.5 0.66,-0.44 1.39,-0.99 2.07,-1.62 l -0.15,-0.09 c -0.25,-0.15 -0.94,-0.66 -1.59,-1.2 -0.16,-0.13 -0.3,-0.25 -0.43,-0.37 l 0.62,-0.33 c 0.72,0.61 1.52,1.21 1.73,1.33 l 0.3,0.18 c 0.19,0.11 0.38,0.22 0.56,0.32 1.05,0.6 1.8,1.01 1.78,1.71 -1.3,1.4 -0.59,2.23 0.13,2.48 l 0.24,-0.77 c 0.76,-0.13 0.75,-0.69 0.78,-1.12 0.02,-0.23 0.2,-0.36 0.38,-0.36 0.15,0 0.3,0.1 0.31,0.33 0.02,0.25 0,0.51 0.07,0.92 0.05,0.28 0.35,0.66 0.78,0.66 0.07,0 0.14,-0.01 0.21,-0.03 l 0.16,0.91 c 1.48,-0.28 1.32,-1.75 0.32,-2.25 -0.57,-0.29 -0.75,-0.5 -0.58,-0.72 0.05,-0.07 0.11,-0.09 0.18,-0.09 0.21,0 0.52,0.23 0.82,0.45 0.13,0.1 0.3,0.15 0.48,0.15 0.39,0 0.81,-0.25 0.99,-0.84 l 0.54,0.3 c 0.09,-1.11 -0.6,-1.66 -1.3,-1.66 -0.33,0 -0.67,0.12 -0.93,0.36 -0.1,0.09 -0.2,0.13 -0.3,0.13 -0.32,0 -0.54,-0.4 -0.11,-0.63 0.41,-0.22 0.8,-0.9 0.42,-1.33 l 0.62,-0.58 c -0.28,-0.17 -0.58,-0.25 -0.86,-0.25 -0.62,0 -1.19,0.4 -1.37,1.31 -0.04,0.21 -0.13,0.29 -0.25,0.29 -0.34,0 -0.94,-0.73 -1.39,-1.45 -0.11,-0.17 -0.21,-0.35 -0.31,-0.52 -0.13,-0.23 -0.27,-0.45 -0.42,-0.67 -0.19,-0.28 -0.39,-0.55 -0.64,-0.79 -0.42,-0.42 -1.15,-1.15 -1.99,-1.64 -0.2,-0.11 -0.41,-0.22 -0.62,-0.31 -0.25,-0.33 -0.5,-0.67 -0.72,-1.02 -0.59,-0.9 -1.08,-1.86 -1.36,-2.87 0.46,0.95 1.1,1.78 1.81,2.52 0.33,0.35 0.67,0.67 1.03,0.99 0.97,0.5 1.78,1.31 2.26,1.78 l 0.07,0.07 c 0.14,0.14 0.27,0.28 0.38,0.43 0.16,-0.98 0.12,-2.19 -0.19,-3.34 -0.06,-0.22 -0.13,-0.45 -0.21,-0.66 -0.29,-0.77 -0.7,-1.49 -1.27,-2.06 -0.15,-0.15 -0.31,-0.29 -0.48,-0.42 -0.74,-0.57 -1.68,-0.92 -2.86,-0.92 -0.17,0 -0.34,0.01 -0.52,0.02 l -1.6,-0.73 c 0.57,0.01 1.03,0.03 1.4,0.03 1.6,0 1.47,-0.22 1.26,-1.34 0,0 -1.35,0.37 -2.38,0.37 -0.1,0 -0.2,0 -0.29,-0.01 -0.5,-0.04 -0.72,-0.26 -0.8,-0.53 -0.1,-0.36 -0.13,-0.92 0.15,-1.62 0.18,-0.46 0.62,-0.86 1.25,-0.86 0.48,0 1.06,0.23 1.72,0.83 l 0.56,0.56 c 0.29,-0.34 0.52,-0.73 0.7,-1.11 0.12,-0.52 -0.44,-0.85 -0.44,-0.85 0.57,0.07 0.85,-0.52 0.94,-0.79 -0.61,-0.33 -1.48,-0.83 -2.4,-1.08 L 41.35,11.82 C 41,11.64 37.58,10.85 36.68,10.85 c -0.05,0 -0.08,0 -0.12,0.01 -0.07,0.01 -0.14,0.04 -0.19,0.08 0.19,0.21 0.36,0.45 0.51,0.71 l -0.61,0.2 c -0.34,-0.55 -0.81,-1.01 -1.23,-1.15 -0.55,0.48 -1.21,1.91 0.24,3.41 v 0.87 l -0.25,-0.24 c -0.35,-0.33 -0.6,-0.65 -0.79,-0.96 -2.77,6 1.78,10.92 1.75,13.04 0,0 0.95,-0.03 1.6,-0.29 0,0 0.29,2.07 -0.35,3.77 -0.74,1.98 -1.91,3.74 -2.85,5.62 -0.32,0.64 -0.6,1.29 -0.83,1.96 -0.01,0.02 -0.01,0.04 -0.02,0.06 -0.19,0.41 -0.51,0.77 -0.87,0.97 -0.01,0.01 -0.03,0.01 -0.04,0.02 -0.47,0.24 -1.02,0.21 -1.48,-0.07 -0.45,-0.27 -0.69,-0.73 -0.68,-1.24 0.03,-1.14 0.7,-1.98 1.42,-2.87 0.38,-0.48 0.78,-0.97 1.09,-1.53 0.97,-1.75 1.21,-3.73 0.69,-5.73 -0.24,-0.92 -0.78,-1.73 -1.3,-2.52 -0.12,-0.18 -0.23,-0.35 -0.35,-0.53 -0.05,-0.07 -0.09,-0.14 -0.13,-0.21 0.25,-0.23 0.3,-0.51 0.22,-0.88 -0.07,-0.34 -0.25,-0.75 -0.47,-1.26 -0.25,-0.56 -0.54,-1.2 -0.68,-1.87 -0.23,-1.08 -0.23,-1.95 -0.09,-2.81 -0.21,0.34 -0.39,0.7 -0.54,1.07 -0.17,0.42 -0.29,0.86 -0.35,1.32 -0.06,0.46 -0.06,0.93 0.01,1.4 -0.16,-0.44 -0.26,-0.92 -0.29,-1.4 -0.03,-0.49 0,-0.98 0.09,-1.46 0.08,-0.44 0.2,-0.88 0.36,-1.3 -0.69,1.01 -1.04,2.24 -1.06,3.72 -0.02,1.86 0.62,3.42 1.23,3.79 0.08,0.05 0.15,0.08 0.22,0.1 0.26,0.06 0.66,-0.12 0.66,-0.12 0.18,0.3 0.36,0.57 0.55,0.86 0.51,0.77 0.99,1.5 1.2,2.29 0.47,1.83 0.27,3.57 -0.62,5.17 -0.28,0.5 -0.65,0.97 -1.02,1.42 -0.76,0.95 -1.55,1.93 -1.58,3.32 -0.02,0.78 0.37,1.49 1.04,1.9 0.36,0.22 0.78,0.34 1.2,0.34 0.19,0 0.39,-0.03 0.58,-0.07 0.17,-0.05 0.34,-0.11 0.5,-0.2 l 0.15,-0.09 c -0.03,0.24 -0.04,0.49 -0.03,0.73 0,0.06 0.01,0.13 0.01,0.19 0.03,0.41 0.09,0.83 0.12,1.24 0.05,0.53 0.14,0.59 -0.02,1.11 -0.19,0.6 -1,0.96 -1.84,1.15 -0.53,0.12 -1.25,0.23 -1.81,0.3 -0.5,0.07 -0.87,0.48 -0.9,0.98 -0.07,1.23 -0.17,3.41 -0.08,4.02 0.06,0.68 0.46,1.25 1.07,1.55 z M 41.18,12.89 c 0,0.57 -0.21,1.17 -1.13,1.13 0,0 -0.24,-0.42 -0.93,-1.11 -0.01,0 1.14,0.23 2.06,-0.02 z m -2.03,8.58 c 0.23,0.45 0.47,0.89 0.73,1.31 0.27,0.42 0.56,0.81 0.88,1.19 0.28,0.34 0.58,0.69 0.87,1.03 -0.33,0.02 -0.66,0.09 -1.01,0.21 L 40.14,24.4 c -0.26,-0.44 -0.5,-0.91 -0.71,-1.39 -0.2,-0.48 -0.37,-0.96 -0.52,-1.45 -0.16,-0.48 -0.3,-0.97 -0.44,-1.46 0.23,0.46 0.45,0.92 0.68,1.37 z m -1.54,3.27 c -0.33,-0.67 -0.64,-1.35 -0.9,-2.05 -0.27,-0.7 -0.49,-1.42 -0.67,-2.14 -0.17,-0.73 -0.29,-1.46 -0.36,-2.2 0.16,0.72 0.36,1.43 0.61,2.12 0.25,0.69 0.55,1.36 0.88,2.01 0.62,1.19 1.36,2.32 2.13,3.43 -0.33,0.19 -0.63,0.32 -0.88,0.4 -0.28,-0.52 -0.55,-1.04 -0.81,-1.57 z M 56.52,12.97 h 0.69 c 0.18,0.58 0.47,1.07 0.83,1.43 h 1.4 c -0.35,-0.2 -0.67,-0.53 -0.92,-0.97 -0.38,-0.65 -0.6,-1.48 -0.61,-2.34 h -1.98 c -0.01,0.86 -0.23,1.69 -0.61,2.34 -0.26,0.44 -0.57,0.77 -0.92,0.97 h 1.31 c 0.34,-0.36 0.63,-0.85 0.81,-1.43 z m -4.04,1.43 h 0.15 c -0.35,-0.2 -0.67,-0.53 -0.92,-0.97 -0.38,-0.65 -0.6,-1.48 -0.61,-2.34 h -1.55 c -0.01,0.09 -0.01,0.18 -0.01,0.28 -0.02,1.64 1.34,3.03 2.94,3.03 z m 10.94,-1.43 h 0.69 c 0.18,0.58 0.47,1.07 0.83,1.43 h 1.49 c -0.35,-0.2 -0.66,-0.53 -0.92,-0.97 -0.38,-0.65 -0.6,-1.48 -0.61,-2.34 h -2.16 c -0.01,0.86 -0.23,1.69 -0.61,2.34 -0.26,0.44 -0.57,0.77 -0.92,0.97 h 1.4 c 0.34,-0.36 0.63,-0.85 0.81,-1.43 z M 38.37,50.84 c 0.19,-0.12 0.39,-0.24 0.61,-0.36 -0.05,-0.02 -0.09,-0.04 -0.14,-0.05 -0.1,-0.04 -0.19,-0.08 -0.28,-0.12 -0.66,-0.26 -1.18,-0.41 -1.61,-0.48 0,0.04 0.01,0.07 0.01,0.11 l 0.11,1.04 -0.97,-0.4 -0.04,-0.01 c -0.07,0.13 -0.15,0.24 -0.24,0.34 -0.25,0.26 -0.58,0.4 -0.95,0.4 0.12,0.18 0.2,0.38 0.25,0.59 0.15,0.66 -0.1,1.38 -0.68,2.02 l -0.42,0.46 -0.46,-0.41 -0.43,-0.38 c -0.06,0.01 -0.12,0.01 -0.18,0.01 -0.61,0 -1.15,-0.48 -1.32,-0.95 -0.02,-0.06 -0.04,-0.12 -0.05,-0.18 -0.06,0.05 -0.13,0.1 -0.19,0.14 l -0.07,0.68 -0.07,0.73 -0.71,-0.18 c -0.53,-0.13 -1.28,-0.4 -1.62,-1.12 -0.16,-0.34 -0.2,-0.72 -0.13,-1.15 -1.55,-0.18 -2.77,-0.59 -2.77,-0.59 0.89,2.67 3.42,4.17 5.87,4.17 1.43,0 2.83,-0.51 3.85,-1.61 0.25,-0.26 0.47,-0.51 0.69,-0.73 0.34,-0.7 0.99,-1.36 1.94,-1.97 z M 70.43,12.97 h 0.69 c 0.18,0.58 0.47,1.07 0.83,1.43 h 1.37 C 72.97,14.2 72.65,13.87 72.4,13.43 72.02,12.78 71.8,11.95 71.79,11.09 h -2.05 c -0.01,0.86 -0.23,1.69 -0.61,2.34 -0.26,0.44 -0.57,0.76 -0.92,0.97 h 1.4 c 0.35,-0.36 0.64,-0.85 0.82,-1.43 z M 46.3,21.25 c 0.35,0.46 0.64,0.98 0.86,1.52 l 1.13,-1.08 c -0.12,-0.31 -0.16,-0.67 -0.12,-1.04 0,-0.02 0.01,-0.04 0.01,-0.07 l 0.6,0.29 c -0.02,0.45 0.15,0.92 0.56,1.14 0.13,0.07 0.24,0.1 0.39,0.1 h 0.01 l -0.02,-0.55 c 0.2,0 0.47,-0.21 0.47,-0.5 0,-0.33 -0.21,-0.51 -0.47,-0.59 v -0.64 c 0.5,0.09 0.87,0.39 1.02,0.8 l 0.66,0.01 c 0.03,-0.5 -0.21,-0.95 -0.72,-1.12 v -0.65 c 0.43,0.09 0.71,0.3 0.88,0.49 0.05,0.05 0.09,0.11 0.14,0.17 l 0.5,0.01 c 0.02,-0.48 -0.22,-0.91 -0.67,-1.06 v -0.65 c 0.28,0.06 0.52,0.17 0.73,0.35 h 0.47 c -0.01,-0.31 -0.19,-0.61 -0.44,-0.8 -0.21,-0.15 -0.48,-0.24 -0.75,-0.28 -0.1,-0.01 -0.21,-0.02 -0.31,-0.02 -0.11,0 -0.21,0.01 -0.32,0.03 -0.27,0.04 -0.54,0.15 -0.77,0.3 -0.4,0.27 -0.78,0.58 -1.15,0.89 -0.6,0.5 -1.18,1.03 -1.81,1.5 -0.2,0.15 -0.81,0.61 -1.29,0.98 0.15,0.16 0.28,0.31 0.41,0.47 z m 0.35,-4.72 c 0.09,-0.48 -0.15,-0.83 -0.62,-0.94 -0.02,0 -0.04,-0.01 -0.06,-0.01 0.11,0.41 0.06,0.86 -0.21,1.3 -0.2,0.31 -0.51,0.55 -0.9,0.69 0.13,0.02 0.26,0.02 0.38,0.02 0.83,0 1.28,-0.34 1.41,-1.06 z"
       id="path3" /><ellipse
       class="st1"
       cx="63.759998"
       cy="16.66"
       rx="1.78"
       ry="0.88999999"
       id="ellipse4" /><path
       class="st1"
       d="m 58.67,16.66 -2,-1.01 -2.01,1.01 2.01,1 z m 14.19,0 -2.01,-1.01 -2,1.01 2,1 z"
       id="path5" /><path
       class="st1"
       d="m 101.29,50.38 c -0.02,0.01 -1.19,0.39 -2.67,0.56 0.48,-0.41 0.8,-0.99 0.9,-1.65 0.07,-0.5 0.05,-1.9 -0.08,-4.14 -0.04,-0.8 -0.65,-1.46 -1.44,-1.56 -0.74,-0.1 -1.35,-0.2 -1.76,-0.29 -0.85,-0.19 -1.31,-0.5 -1.37,-0.72 -0.08,-0.24 -0.07,-0.27 -0.04,-0.49 0.01,-0.1 0.03,-0.22 0.05,-0.38 0.02,-0.18 0.03,-0.35 0.06,-0.54 0.03,-0.23 0.05,-0.47 0.07,-0.71 v -0.04 c 0.19,0.04 0.39,0.06 0.58,0.06 0.53,0 1.06,-0.14 1.52,-0.43 0.86,-0.53 1.36,-1.44 1.34,-2.45 -0.04,-1.6 -0.93,-2.72 -1.72,-3.7 -0.36,-0.45 -0.71,-0.88 -0.96,-1.33 -0.81,-1.46 -1,-3.04 -0.56,-4.71 0.18,-0.69 0.63,-1.38 1.11,-2.1 0.1,-0.15 0.2,-0.31 0.3,-0.46 0.07,0.01 0.14,0.02 0.21,0.02 0.3,0 0.55,-0.1 0.73,-0.21 1.15,-0.71 1.55,-3.03 1.53,-4.33 -0.03,-2.72 -1.1,-4.68 -3.25,-5.99 l -0.74,-0.45 0.28,0.82 c 0.65,1.89 1,3.06 0.59,4.96 -0.13,0.61 -0.39,1.19 -0.64,1.75 -0.39,0.88 -0.77,1.73 -0.44,2.42 -0.08,0.12 -0.16,0.25 -0.24,0.37 -0.55,0.83 -1.12,1.69 -1.38,2.71 -0.56,2.16 -0.3,4.3 0.75,6.19 0.33,0.6 0.75,1.12 1.15,1.62 0.67,0.84 1.26,1.56 1.28,2.49 0.01,0.39 -0.24,0.6 -0.38,0.69 -0.28,0.17 -0.61,0.18 -0.9,0.03 -0.23,-0.12 -0.45,-0.36 -0.59,-0.64 -0.22,-0.65 -0.5,-1.33 -0.88,-2.08 -0.34,-0.68 -0.71,-1.35 -1.07,-2 -0.66,-1.2 -1.29,-2.33 -1.75,-3.56 -0.35,-0.95 -0.39,-2.04 -0.37,-2.74 0.5,0.09 0.94,0.11 1.02,0.11 l 0.65,0.02 -0.01,-0.65 c -0.01,-0.49 0.38,-1.34 0.82,-2.33 1.21,-2.68 3.04,-6.72 0.69,-11.35 -0.02,-0.03 -0.03,-0.07 -0.05,-0.1 0.1,-0.32 0.13,-0.61 0.12,-0.85 -0.01,-0.89 -0.45,-1.59 -0.85,-1.95 l -0.28,-0.25 -0.35,0.12 c -0.23,0.08 -0.45,0.22 -0.67,0.39 -0.15,-0.14 -0.34,-0.24 -0.56,-0.27 -0.06,-0.01 -0.12,-0.01 -0.2,-0.01 -0.97,0 -4.5,0.8 -4.96,1.04 l -0.24,0.12 -0.08,0.26 -0.17,0.59 c -0.78,0.26 -1.49,0.65 -2.02,0.94 -0.07,0.04 -0.14,0.08 -0.21,0.11 l -0.4,0.22 0.09,0.45 c 0.01,0.07 0.36,1.83 1.38,3.02 l 0.05,0.05 c -0.25,0.02 -0.47,0.04 -0.67,0.04 -0.61,0 -1.09,-0.18 -1.32,-0.54 -0.36,-0.56 -0.1,-1.16 0.32,-1.47 -0.23,-0.1 -0.45,-0.16 -0.72,-0.16 -0.16,0 -0.34,0.02 -0.54,0.07 -0.8,0.18 -1.25,0.85 -1.1,1.66 0.17,0.97 0.85,1.57 2.03,1.57 0.24,0 0.49,-0.02 0.77,-0.07 0.4,-0.07 0.81,-0.19 1.22,-0.32 0,0.02 -0.01,0.03 -0.01,0.05 -0.1,0.56 -0.19,1.04 0.12,1.43 -0.86,0.16 -1.64,0.52 -2.3,1.06 C 81.54,19.96 80.81,19.41 80.7,19.32 80.27,19 79.87,18.65 79.44,18.29 79.27,18.14 79.09,17.99 78.91,17.84 78.54,17.53 78.14,17.21 77.71,16.91 77.39,16.69 77.02,16.55 76.62,16.5 v -1.77 c 1.27,-0.56 2.16,-1.85 2.16,-3.32 0,-0.33 -0.04,-0.64 -0.13,-0.94 h -2.69 c 0.02,0.18 0.03,0.36 0.03,0.55 0,1.6 -0.8,3.01 -1.79,3.01 -0.99,0 -1.79,-1.41 -1.79,-3.01 0,-0.19 0.01,-0.37 0.03,-0.55 h -3.37 c 0.02,0.18 0.03,0.36 0.03,0.55 0,1.6 -0.8,3.01 -1.79,3.01 -0.99,0 -1.79,-1.41 -1.79,-3.01 0,-0.19 0.01,-0.37 0.03,-0.55 h -3.48 c 0.02,0.18 0.03,0.36 0.03,0.55 0,1.6 -0.8,3.01 -1.79,3.01 -0.99,0 -1.79,-1.41 -1.79,-3.01 0,-0.19 0.01,-0.37 0.03,-0.55 h -3.29 c 0.02,0.18 0.03,0.36 0.03,0.55 0,1.6 -0.8,3.01 -1.79,3.01 -0.99,0 -1.79,-1.41 -1.79,-3.01 0,-0.19 0.01,-0.37 0.03,-0.55 h -2.73 c -0.08,0.29 -0.12,0.59 -0.12,0.9 0,1.42 0.83,2.69 2.02,3.29 v 1.84 c -0.4,0.05 -0.79,0.19 -1.12,0.42 -0.43,0.29 -0.83,0.62 -1.2,0.93 -0.18,0.15 -0.35,0.3 -0.53,0.45 -0.43,0.36 -0.83,0.71 -1.26,1.03 -0.11,0.08 -0.84,0.63 -1.38,1.05 -0.66,-0.54 -1.43,-0.9 -2.3,-1.06 0.31,-0.4 0.22,-0.88 0.12,-1.43 0,-0.01 -0.01,-0.03 -0.01,-0.05 0.41,0.14 0.82,0.25 1.22,0.32 0.28,0.05 0.53,0.07 0.77,0.07 1.18,0 1.86,-0.6 2.03,-1.57 0.15,-0.81 -0.3,-1.48 -1.1,-1.66 -0.2,-0.04 -0.38,-0.07 -0.54,-0.07 -0.27,0 -0.49,0.06 -0.72,0.16 0.42,0.31 0.68,0.91 0.32,1.47 -0.23,0.37 -0.72,0.54 -1.32,0.54 -0.21,0 -0.43,-0.02 -0.65,-0.06 l 0.05,-0.05 c 1.02,-1.19 1.37,-2.94 1.38,-3.02 l 0.09,-0.45 -0.4,-0.22 C 44.29,13.26 44.22,13.23 44.15,13.19 43.61,12.9 42.91,12.51 42.13,12.25 L 41.96,11.66 41.88,11.4 41.64,11.28 c -0.46,-0.24 -3.99,-1.04 -4.96,-1.04 -0.07,0 -0.14,0 -0.2,0.01 -0.22,0.03 -0.41,0.13 -0.56,0.27 -0.22,-0.18 -0.45,-0.31 -0.67,-0.39 l -0.35,-0.12 -0.29,0.23 c -0.4,0.36 -0.84,1.06 -0.85,1.95 0,0.24 0.03,0.53 0.12,0.85 -0.02,0.04 -0.04,0.07 -0.05,0.1 -2.35,4.63 -0.52,8.67 0.69,11.35 0.44,0.98 0.83,1.83 0.82,2.33 l -0.01,0.65 0.65,-0.02 c 0.07,0 0.51,-0.02 1.02,-0.11 0.02,0.7 -0.01,1.8 -0.37,2.74 -0.46,1.23 -1.09,2.36 -1.75,3.56 -0.36,0.65 -0.73,1.32 -1.07,2 -0.37,0.75 -0.66,1.43 -0.88,2.08 -0.14,0.28 -0.35,0.52 -0.59,0.64 -0.29,0.15 -0.62,0.14 -0.9,-0.03 -0.15,-0.09 -0.39,-0.3 -0.38,-0.69 0.02,-0.92 0.6,-1.65 1.28,-2.49 0.4,-0.5 0.81,-1.01 1.15,-1.62 1.05,-1.89 1.31,-4.03 0.75,-6.19 -0.26,-1.02 -0.83,-1.88 -1.38,-2.71 -0.08,-0.12 -0.16,-0.25 -0.24,-0.37 0.33,-0.69 -0.04,-1.54 -0.44,-2.42 -0.25,-0.56 -0.51,-1.14 -0.64,-1.75 -0.41,-1.91 -0.06,-3.07 0.59,-4.96 l 0.28,-0.82 -0.74,0.45 c -2.15,1.31 -3.22,3.27 -3.25,5.99 -0.02,1.3 0.39,3.63 1.53,4.33 0.18,0.11 0.42,0.21 0.73,0.21 0.07,0 0.13,-0.01 0.21,-0.02 0.1,0.15 0.2,0.31 0.3,0.46 0.48,0.72 0.93,1.41 1.11,2.1 0.43,1.67 0.24,3.26 -0.56,4.71 -0.25,0.45 -0.59,0.88 -0.96,1.33 -0.79,0.98 -1.68,2.09 -1.72,3.7 -0.02,1 0.48,1.92 1.34,2.45 0.46,0.29 0.99,0.43 1.52,0.43 0.2,0 0.39,-0.02 0.58,-0.06 v 0.04 c 0.02,0.24 0.04,0.48 0.07,0.71 0.02,0.19 0.04,0.36 0.06,0.54 0.01,0.16 0.03,0.28 0.05,0.38 0.03,0.21 0.04,0.25 -0.04,0.49 -0.07,0.22 -0.52,0.53 -1.37,0.72 -0.41,0.09 -1.02,0.19 -1.76,0.29 -0.79,0.11 -1.4,0.77 -1.44,1.56 -0.12,2.24 -0.15,3.64 -0.08,4.14 0.1,0.66 0.42,1.24 0.9,1.65 -1.48,-0.17 -2.66,-0.56 -2.67,-0.56 l -1.19,-0.4 0.4,1.19 c 0.47,1.4 1.36,2.58 2.59,3.41 1.14,0.77 2.51,1.19 3.87,1.19 1.66,0 3.17,-0.62 4.26,-1.75 0.01,0.31 0.07,0.61 0.19,0.92 l 0.55,1.37 0.61,-1.34 c 0.04,-0.08 0.97,-2.04 3.19,-2.21 0.95,-0.07 2.03,-0.21 2.87,-0.91 h 0.01 c 0,0.23 0.02,0.45 0.08,0.67 0.3,1.24 1.37,1.87 1.41,1.89 l 0.99,0.57 -0.06,-1.14 c -0.02,-0.49 -0.05,-1.05 0.09,-1.51 0.25,-0.83 1.12,-1.14 1.61,-1.26 0.12,-0.03 0.24,-0.06 0.35,-0.08 0.81,-0.18 1.47,-0.33 2.15,-0.73 -0.29,0.57 -0.41,1.15 -0.35,1.74 0.14,1.47 1.34,2.39 1.39,2.43 l 1.37,1.03 -0.38,-1.67 c -0.14,-0.64 -0.25,-2.1 0.34,-2.48 0.73,-0.48 1.28,-0.54 1.92,-0.61 0.53,-0.06 1.1,-0.13 1.77,-0.42 -0.52,1.15 -0.3,2.09 -0.28,2.14 l 0.32,1.27 0.79,-1.05 c 0.01,-0.02 1.49,-1.93 3.59,-1.93 1.52,0 2.75,0.75 2.76,0.76 l 0.33,0.2 0.33,-0.2 c 0.01,-0.01 1.24,-0.76 2.76,-0.76 2.1,0 3.58,1.92 3.59,1.93 l 0.79,1.05 0.32,-1.27 c 0.01,-0.05 0.24,-0.99 -0.28,-2.14 0.67,0.29 1.24,0.36 1.77,0.42 0.64,0.07 1.2,0.14 1.92,0.61 0.59,0.39 0.49,1.84 0.34,2.48 l -0.38,1.67 1.37,-1.03 c 0.05,-0.04 1.25,-0.96 1.39,-2.43 0.06,-0.59 -0.06,-1.17 -0.35,-1.74 0.68,0.39 1.34,0.54 2.15,0.73 0.11,0.03 0.23,0.05 0.35,0.08 0.49,0.11 1.36,0.43 1.61,1.26 0.14,0.46 0.11,1.02 0.09,1.51 l -0.06,1.14 0.99,-0.57 c 0.05,-0.03 1.12,-0.65 1.41,-1.89 0.05,-0.22 0.08,-0.45 0.08,-0.67 h 0.01 c 0.84,0.7 1.92,0.83 2.87,0.91 2.22,0.17 3.15,2.13 3.19,2.21 l 0.61,1.34 0.55,-1.37 c 0.12,-0.31 0.19,-0.62 0.19,-0.92 1.09,1.13 2.6,1.75 4.26,1.75 1.36,0 2.73,-0.42 3.87,-1.19 1.23,-0.83 2.13,-2.01 2.59,-3.41 l 0.4,-1.19 z M 82.27,17.59 c -0.84,0 -1.28,-0.34 -1.41,-1.06 -0.09,-0.48 0.15,-0.83 0.62,-0.94 0.02,0 0.04,-0.01 0.06,-0.01 -0.11,0.41 -0.06,0.86 0.21,1.3 0.2,0.31 0.51,0.55 0.9,0.69 -0.13,0.01 -0.26,0.02 -0.38,0.02 z M 45.75,16.88 c 0.28,-0.43 0.32,-0.89 0.21,-1.3 0.02,0 0.04,0.01 0.06,0.01 0.47,0.1 0.71,0.46 0.62,0.94 -0.13,0.72 -0.58,1.06 -1.41,1.06 -0.12,0 -0.25,-0.01 -0.38,-0.02 0.39,-0.14 0.7,-0.37 0.9,-0.69 z m 36.36,4.29 c 0.15,-0.15 0.31,-0.29 0.48,-0.42 0.74,-0.57 1.68,-0.92 2.86,-0.92 0.17,0 0.34,0.01 0.52,0.02 l 1.6,-0.73 c -0.57,0.01 -1.03,0.03 -1.4,0.03 -1.6,0 -1.47,-0.22 -1.26,-1.34 0,0 1.35,0.37 2.38,0.37 0.1,0 0.2,0 0.29,-0.01 0.5,-0.04 0.72,-0.26 0.8,-0.53 0.1,-0.36 0.13,-0.92 -0.15,-1.62 -0.18,-0.46 -0.62,-0.86 -1.25,-0.86 -0.48,0 -1.06,0.23 -1.72,0.83 l -0.56,0.56 c -0.29,-0.34 -0.52,-0.73 -0.7,-1.11 -0.12,-0.52 0.44,-0.85 0.44,-0.85 -0.57,0.07 -0.85,-0.52 -0.94,-0.79 0.61,-0.33 1.48,-0.83 2.4,-1.08 l 0.27,-0.92 c 0.35,-0.18 3.77,-0.97 4.67,-0.97 0.05,0 0.08,0 0.12,0.01 0.07,0.01 0.14,0.04 0.19,0.08 -0.19,0.21 -0.36,0.45 -0.51,0.71 l 0.61,0.2 c 0.34,-0.55 0.81,-1.01 1.23,-1.15 0.55,0.48 1.21,1.91 -0.24,3.41 v 0.87 l 0.25,-0.24 c 0.35,-0.33 0.6,-0.65 0.79,-0.96 2.77,6 -1.78,10.92 -1.75,13.04 0,0 -0.95,-0.03 -1.6,-0.29 0,0 -0.29,2.07 0.35,3.77 0.74,1.98 1.91,3.74 2.85,5.62 0.32,0.64 0.6,1.29 0.83,1.96 0.01,0.02 0.01,0.04 0.02,0.06 0.19,0.41 0.51,0.77 0.87,0.97 0.01,0.01 0.03,0.01 0.04,0.02 0.47,0.24 1.02,0.21 1.48,-0.07 0.45,-0.27 0.69,-0.73 0.68,-1.24 -0.03,-1.14 -0.7,-1.98 -1.42,-2.87 -0.38,-0.48 -0.78,-0.97 -1.09,-1.53 -0.97,-1.75 -1.21,-3.73 -0.69,-5.73 0.24,-0.92 0.78,-1.73 1.3,-2.52 0.12,-0.18 0.23,-0.35 0.35,-0.53 0.05,-0.07 0.09,-0.14 0.13,-0.21 -0.25,-0.23 -0.3,-0.51 -0.22,-0.88 0.07,-0.34 0.25,-0.75 0.47,-1.26 0.25,-0.56 0.54,-1.2 0.68,-1.87 0.23,-1.08 0.23,-1.95 0.09,-2.81 0.21,0.34 0.39,0.7 0.54,1.07 0.17,0.42 0.29,0.86 0.35,1.32 0.06,0.46 0.06,0.93 -0.01,1.4 0.16,-0.44 0.26,-0.92 0.29,-1.4 0.03,-0.49 0,-0.98 -0.09,-1.46 -0.08,-0.44 -0.2,-0.88 -0.36,-1.3 0.69,1.01 1.04,2.24 1.06,3.72 0.02,1.86 -0.62,3.42 -1.23,3.79 -0.08,0.05 -0.15,0.08 -0.22,0.1 -0.26,0.06 -0.66,-0.12 -0.66,-0.12 -0.18,0.3 -0.36,0.57 -0.55,0.86 -0.51,0.77 -0.99,1.5 -1.2,2.29 -0.47,1.83 -0.27,3.57 0.62,5.17 0.28,0.5 0.65,0.97 1.02,1.42 0.76,0.95 1.55,1.93 1.58,3.32 0.02,0.78 -0.37,1.49 -1.04,1.9 -0.36,0.22 -0.78,0.34 -1.2,0.34 -0.19,0 -0.39,-0.03 -0.58,-0.07 -0.17,-0.05 -0.34,-0.11 -0.5,-0.2 l -0.15,-0.09 c 0.03,0.24 0.04,0.49 0.03,0.73 0,0.06 -0.01,0.13 -0.01,0.19 -0.03,0.41 -0.09,0.83 -0.12,1.24 -0.05,0.53 -0.14,0.59 0.02,1.11 0.19,0.6 1,0.96 1.84,1.15 0.53,0.12 1.25,0.23 1.81,0.3 0.5,0.07 0.87,0.48 0.9,0.98 0.07,1.23 0.17,3.41 0.08,4.02 -0.1,0.67 -0.49,1.24 -1.11,1.54 0.04,0.09 0.08,0.18 0.12,0.26 0.09,0.23 0.16,0.43 0.19,0.62 0.2,1.09 -0.58,1.43 -1.28,1.6 L 96.7,52.21 C 96.69,52.17 96.5,52.08 96.46,52.06 96.4,52.02 96.33,51.98 96.28,51.93 96.16,51.82 96.12,51.69 96.1,51.55 96.09,51.47 96.09,51.39 96.09,51.3 96.08,51.15 96.06,51 95.98,50.89 95.94,50.84 95.9,50.8 95.83,50.77 c -0.06,-0.03 -0.12,-0.04 -0.18,-0.04 -0.07,0 -0.13,0.02 -0.19,0.05 -0.13,0.07 -0.24,0.2 -0.26,0.36 -0.01,0.06 0,0.14 0.01,0.22 0.05,0.29 0.19,0.69 0.06,1.04 -0.08,0.23 -0.39,0.54 -0.73,0.54 -0.11,0 -0.21,-0.03 -0.32,-0.1 l -0.7,0.62 c -0.93,-1.02 -0.64,-2 0.37,-2.42 0.08,-0.03 0.15,-0.07 0.21,-0.11 0.19,-0.13 0.3,-0.3 0.19,-0.48 -0.08,-0.14 -0.17,-0.19 -0.29,-0.19 -0.18,0 -0.41,0.11 -0.76,0.25 -0.02,0.01 -0.04,0.02 -0.07,0.03 -0.19,0.07 -0.37,0.12 -0.54,0.12 -0.36,0 -0.65,-0.21 -0.8,-0.79 -0.01,-0.05 -0.02,-0.11 -0.03,-0.16 l -0.24,0.1 -0.42,0.17 c 0.01,-0.07 0.02,-0.15 0.03,-0.22 0.04,-0.24 0.12,-0.44 0.21,-0.61 0.31,-0.57 0.86,-0.8 1.42,-0.8 0.72,0 1.46,0.36 1.77,0.82 l 1.32,0.18 c 0.27,-0.34 0.28,-1.34 0.24,-2.12 -0.03,-0.57 -0.45,-1.03 -1.01,-1.12 -0.96,-0.14 -2.4,-0.35 -2.91,-0.39 -0.97,-0.07 -1.98,-0.24 -2.71,-0.95 -1,-0.99 -1.22,-2.02 -1.22,-3.45 0,-0.47 0.02,-0.94 0.06,-1.42 0.03,-0.41 0.08,-0.82 0.12,-1.22 0.03,-0.27 0.07,-0.54 0.11,-0.81 0.04,-0.25 0.04,-0.52 0.02,-0.78 C 88.58,36.99 88.57,36.9 88.55,36.8 88.5,36.51 88.42,36.23 88.31,35.94 88.19,35.64 88.02,35.36 87.82,35.09 87.5,34.67 87.08,34.3 86.55,34 86.36,33.89 86.13,33.76 85.89,33.61 85.65,33.46 85.39,33.3 85.12,33.11 84.46,32.67 83.73,32.12 83.05,31.49 L 83.2,31.4 c 0.25,-0.15 0.94,-0.66 1.59,-1.2 0.16,-0.13 0.3,-0.25 0.43,-0.37 L 84.6,29.5 c -0.72,0.61 -1.52,1.21 -1.73,1.33 l -0.3,0.18 c -0.19,0.11 -0.38,0.22 -0.56,0.32 -1.05,0.6 -1.8,1.01 -1.78,1.71 1.3,1.4 0.59,2.23 -0.13,2.48 l -0.24,-0.77 c -0.76,-0.13 -0.75,-0.69 -0.78,-1.12 -0.02,-0.23 -0.2,-0.36 -0.38,-0.36 -0.15,0 -0.3,0.1 -0.31,0.33 -0.02,0.25 0,0.51 -0.07,0.92 -0.05,0.28 -0.35,0.66 -0.78,0.66 -0.07,0 -0.14,-0.01 -0.21,-0.03 l -0.16,0.91 c -1.48,-0.28 -1.32,-1.75 -0.32,-2.25 0.57,-0.29 0.75,-0.5 0.58,-0.72 C 77.38,33.03 77.32,33 77.25,33 c -0.21,0 -0.52,0.23 -0.82,0.45 -0.13,0.1 -0.3,0.15 -0.48,0.15 -0.39,0 -0.81,-0.25 -0.99,-0.84 l -0.51,0.31 c -0.09,-1.11 0.6,-1.66 1.3,-1.66 0.33,0 0.67,0.12 0.93,0.36 0.1,0.09 0.2,0.13 0.3,0.13 0.32,0 0.54,-0.4 0.11,-0.63 -0.41,-0.22 -0.8,-0.9 -0.42,-1.33 l -0.62,-0.58 c 0.28,-0.17 0.58,-0.25 0.86,-0.25 0.62,0 1.19,0.4 1.37,1.31 0.04,0.21 0.13,0.29 0.25,0.29 0.34,0 0.94,-0.73 1.39,-1.45 0.11,-0.17 0.21,-0.35 0.31,-0.52 0.13,-0.23 0.27,-0.45 0.42,-0.67 0.19,-0.28 0.39,-0.55 0.64,-0.79 0.42,-0.42 1.15,-1.15 1.99,-1.64 0.2,-0.11 0.41,-0.22 0.62,-0.31 0.25,-0.33 0.5,-0.67 0.72,-1.02 0.59,-0.9 1.08,-1.86 1.36,-2.87 -0.46,0.95 -1.1,1.78 -1.81,2.52 -0.33,0.35 -0.67,0.67 -1.03,0.99 -0.97,0.5 -1.78,1.31 -2.26,1.78 l -0.07,0.07 c -0.14,0.14 -0.27,0.28 -0.38,0.43 -0.16,-0.98 -0.12,-2.19 0.19,-3.34 0.06,-0.22 0.13,-0.45 0.21,-0.66 0.29,-0.76 0.71,-1.48 1.28,-2.06 z m 3.74,-3.97 c 0.38,-0.13 0.76,-0.23 1.12,-0.23 0.3,0 0.58,0.07 0.84,0.22 -0.01,0.12 -0.03,0.22 -0.04,0.27 v 0.01 c 0,0 -0.05,0.05 -0.25,0.07 -0.07,0.01 -0.15,0.01 -0.24,0.01 -0.39,0 -0.83,-0.06 -1.22,-0.13 -0.39,-0.06 -0.98,-0.19 -0.98,-0.19 -0.06,-0.32 -0.01,-0.66 0.11,-0.65 0.14,0.03 0.24,0.37 0.66,0.62 z m -0.41,-0.5 0.24,-0.25 c 0.6,-0.54 1.03,-0.66 1.28,-0.66 0.45,0 0.63,0.35 0.67,0.46 0.04,0.1 0.07,0.2 0.1,0.29 -0.24,-0.11 -0.5,-0.15 -0.77,-0.15 -0.48,0 -0.99,0.15 -1.52,0.31 z m 4.14,30.83 c -0.74,0.5 -1.43,0.74 -2.16,0.74 -0.68,0 -1.34,-0.2 -2.04,-0.42 -0.19,-0.06 -0.38,-0.12 -0.58,-0.17 -0.31,-0.09 -0.64,-0.13 -0.97,-0.13 -0.8,0 -1.49,0.26 -1.94,0.49 0.05,-0.17 0.21,-0.81 0.21,-1.3 0.59,-0.33 1,-0.8 1.2,-1.41 0.3,-0.91 0.54,-2.52 0.3,-4.26 0.47,-0.06 1.14,-0.16 1.81,-0.27 0.73,-0.12 1.33,-0.24 1.77,-0.35 0.21,-0.05 0.38,-0.1 0.53,-0.15 -0.02,0.35 -0.03,0.7 -0.03,1.05 0,0.87 0.08,1.52 0.26,2.09 0.22,0.68 0.59,1.27 1.14,1.81 0.88,0.87 2.06,1.06 3.1,1.13 0.37,0.03 1.39,0.16 2.86,0.38 0.26,0.04 0.47,0.26 0.48,0.53 0.04,0.72 0.01,1.15 -0.03,1.39 L 94.91,48.6 c -0.48,-0.52 -1.3,-0.86 -2.1,-0.86 -1.01,0 -1.77,0.53 -2.11,1.43 -0.18,0.02 -0.38,0.05 -0.58,0.1 0.38,-0.58 0.41,-1.12 0.42,-1.19 l 0.05,-1.25 z m -10.05,0.11 c -0.06,-0.05 -0.12,-0.11 -0.17,-0.17 -0.01,-0.02 -0.02,-0.03 -0.03,-0.05 -0.13,-0.21 -0.09,-0.43 -0.06,-0.66 0.03,-0.23 0.03,-0.46 -0.18,-0.61 -0.08,-0.06 -0.17,-0.09 -0.26,-0.09 -0.06,0 -0.11,0.01 -0.16,0.03 -0.14,0.05 -0.27,0.17 -0.32,0.33 -0.03,0.08 -0.03,0.19 -0.03,0.32 0,0.11 0.01,0.23 0.01,0.35 0,0.21 -0.02,0.44 -0.11,0.64 l -0.03,0.06 c -0.12,0.2 -0.44,0.45 -0.77,0.45 -0.15,0 -0.3,-0.05 -0.43,-0.18 l -0.87,0.53 c 0,0 -0.01,0 -0.01,-0.01 -0.06,-0.09 -0.1,-0.18 -0.15,-0.26 -0.1,-0.21 -0.17,-0.4 -0.21,-0.59 -0.16,-0.84 0.34,-1.45 1.22,-1.65 0.36,-0.08 0.65,-0.27 0.54,-0.56 -0.07,-0.19 -0.19,-0.26 -0.37,-0.26 -0.19,0 -0.46,0.07 -0.83,0.15 -0.12,0.02 -0.23,0.04 -0.34,0.06 -0.09,0.01 -0.18,0.02 -0.26,0.02 -0.39,0 -0.64,-0.19 -0.64,-0.97 l -0.75,0.16 c 0.34,-1.19 1.03,-1.65 1.75,-1.65 0.74,0 1.52,0.49 2,1.16 l 0.3,0.1 0.53,0.18 1.06,0.36 c 1.03,-0.87 0.56,-3.16 0.56,-3.16 0,0 -2.01,-1.13 -1.34,-3.64 0,0 0.35,-2.36 4.65,-2.36 0.46,0 0.96,0.03 1.51,0.09 0.33,0.04 0.63,0.08 0.9,0.13 0,0 0,0.01 0.01,0.01 -0.1,0.23 -0.13,0.49 -0.08,0.74 0.07,0.39 0.31,0.72 0.66,0.9 0.17,0.09 0.36,0.14 0.56,0.14 0.22,0 0.43,-0.06 0.63,-0.17 0,0.11 -0.01,0.21 -0.02,0.31 -0.08,0.56 -0.16,1.16 -0.21,1.79 -0.87,0.44 -4.9,0.94 -4.9,0.94 0.39,1.9 0.14,3.7 -0.16,4.6 -0.11,0.33 -0.3,0.59 -0.54,0.8 -0.19,0.17 -0.41,0.3 -0.66,0.4 -0.05,0.66 -0.1,1.15 -0.22,1.54 -0.03,0.14 -0.08,0.26 -0.14,0.36 -0.3,0.51 -0.92,0.63 -1.48,0.67 l 0.09,-1.06 C 79.75,47.8 79.57,47.67 79.53,47.64 Z m 1.43,-14.76 c 0.17,-0.27 0.74,-0.58 1.33,-0.92 0.07,-0.04 0.15,-0.08 0.23,-0.13 l 0.33,0.3 c 0.27,0.24 0.55,0.47 0.83,0.69 l 0.01,0.01 1.38,1.44 c 0.36,0.38 0.61,0.67 0.78,0.91 l -2.01,-0.14 c -0.99,0 -1.79,0.12 -2.44,0.31 0.09,-0.14 0.16,-0.3 0.2,-0.46 0.16,-0.76 -0.21,-1.47 -0.64,-2.01 z m 5.71,2.45 c -0.12,-0.23 -0.31,-0.52 -0.63,-0.91 0.08,0.05 0.17,0.1 0.24,0.14 0.48,0.27 0.84,0.6 1.11,0.96 0.21,0.28 0.35,0.58 0.46,0.87 0.04,0.11 0.07,0.23 0.09,0.34 -0.12,0.19 -0.33,0.31 -0.55,0.31 -0.09,0 -0.18,-0.02 -0.27,-0.07 -0.33,-0.17 -0.46,-0.61 -0.23,-0.95 0.02,-0.03 0.04,-0.06 0.07,-0.09 -0.1,-0.17 -0.17,-0.36 -0.29,-0.6 z m -9.32,-17.9 c 0.4,0.27 0.78,0.58 1.15,0.89 0.6,0.5 1.18,1.03 1.81,1.5 0.2,0.15 0.81,0.61 1.29,0.98 -0.14,0.15 -0.27,0.3 -0.4,0.46 -0.35,0.46 -0.64,0.98 -0.86,1.52 l -1.13,-1.07 c 0.12,-0.31 0.16,-0.67 0.12,-1.04 0,-0.02 -0.01,-0.04 -0.01,-0.07 l -0.6,0.29 c 0.02,0.45 -0.15,0.92 -0.56,1.14 -0.13,0.07 -0.24,0.1 -0.39,0.1 h -0.01 l 0.02,-0.55 c -0.2,0 -0.47,-0.21 -0.47,-0.5 0,-0.33 0.21,-0.51 0.47,-0.59 v -0.64 c -0.5,0.09 -0.87,0.39 -1.02,0.8 l -0.66,0.01 c -0.03,-0.5 0.21,-0.95 0.72,-1.12 v -0.65 c -0.43,0.09 -0.71,0.3 -0.88,0.49 -0.05,0.05 -0.09,0.11 -0.14,0.17 l -0.5,0.01 c -0.02,-0.48 0.22,-0.91 0.67,-1.06 v -0.65 c -0.28,0.06 -0.52,0.17 -0.73,0.35 h -0.47 c 0.01,-0.31 0.19,-0.61 0.44,-0.8 0.22,-0.16 0.5,-0.25 0.78,-0.28 0.09,-0.01 0.18,-0.02 0.27,-0.02 0.12,0 0.24,0.01 0.35,0.03 0.27,0.05 0.52,0.15 0.74,0.3 z m -1.34,-4 c 0.38,-0.65 0.6,-1.48 0.61,-2.34 h 1.51 c 0.01,0.11 0.02,0.21 0.02,0.32 0,1.65 -1.32,2.99 -2.95,2.99 h -0.11 c 0.35,-0.21 0.66,-0.53 0.92,-0.97 z m -6.89,0 c 0.38,-0.65 0.6,-1.48 0.61,-2.34 h 2.05 c 0.01,0.86 0.23,1.69 0.61,2.34 0.26,0.44 0.57,0.77 0.92,0.97 H 71.94 C 71.59,14.04 71.3,13.55 71.11,12.97 h -0.69 c -0.18,0.58 -0.47,1.07 -0.83,1.43 h -1.4 c 0.36,-0.21 0.68,-0.53 0.93,-0.97 z m -6.99,0 c 0.38,-0.65 0.6,-1.48 0.61,-2.34 h 2.16 c 0.01,0.86 0.23,1.69 0.61,2.34 0.26,0.44 0.57,0.76 0.92,0.97 H 64.94 C 64.59,14.04 64.3,13.55 64.11,12.97 h -0.69 c -0.18,0.58 -0.47,1.07 -0.83,1.43 h -1.4 c 0.36,-0.21 0.68,-0.53 0.94,-0.97 z m -6.82,0 c 0.38,-0.65 0.6,-1.48 0.61,-2.34 h 1.98 c 0.01,0.86 0.23,1.69 0.61,2.34 0.26,0.44 0.57,0.77 0.92,0.97 h -1.4 C 57.68,14.04 57.39,13.55 57.2,12.97 h -0.69 c -0.18,0.58 -0.47,1.07 -0.83,1.43 h -1.31 c 0.37,-0.21 0.69,-0.53 0.94,-0.97 z m -5.79,-2.07 c 0,-0.09 0,-0.18 0.01,-0.28 h 1.55 c 0.01,0.86 0.23,1.69 0.61,2.34 0.26,0.44 0.57,0.77 0.92,0.97 h -0.15 c -1.58,0.01 -2.94,-1.38 -2.94,-3.03 z m -2.33,8.45 c 0.63,-0.47 1.21,-0.99 1.81,-1.5 0.37,-0.31 0.75,-0.62 1.15,-0.89 0.23,-0.16 0.49,-0.26 0.77,-0.3 0.1,-0.02 0.21,-0.03 0.32,-0.03 0.1,0 0.2,0.01 0.31,0.02 0.27,0.04 0.54,0.12 0.75,0.28 0.25,0.18 0.43,0.48 0.44,0.8 H 52.27 C 52.06,18.02 51.81,17.9 51.54,17.84 v 0.65 c 0.46,0.15 0.7,0.58 0.67,1.06 l -0.5,-0.01 C 51.67,19.48 51.62,19.43 51.57,19.37 51.4,19.19 51.11,18.98 50.69,18.88 v 0.65 c 0.5,0.17 0.74,0.62 0.72,1.12 l -0.66,-0.01 c -0.15,-0.42 -0.52,-0.71 -1.02,-0.8 v 0.64 c 0.26,0.08 0.47,0.26 0.47,0.59 0,0.29 -0.26,0.5 -0.47,0.5 l 0.02,0.55 h -0.01 c -0.14,0 -0.26,-0.04 -0.39,-0.1 -0.41,-0.22 -0.57,-0.7 -0.56,-1.14 l -0.6,-0.29 c 0,0.02 -0.01,0.04 -0.01,0.07 -0.05,0.37 0,0.73 0.12,1.04 l -1.13,1.08 c -0.22,-0.54 -0.51,-1.05 -0.86,-1.52 -0.13,-0.16 -0.26,-0.32 -0.4,-0.46 0.47,-0.38 1.08,-0.84 1.28,-0.99 z M 28.61,49.2 c -0.09,-0.61 0.01,-2.78 0.08,-4.02 0.03,-0.5 0.41,-0.91 0.9,-0.98 0.56,-0.08 1.28,-0.19 1.81,-0.3 0.84,-0.18 1.65,-0.55 1.84,-1.15 0.16,-0.52 0.07,-0.58 0.02,-1.11 -0.04,-0.41 -0.09,-0.83 -0.12,-1.24 0,-0.06 -0.01,-0.13 -0.01,-0.19 -0.01,-0.24 0,-0.49 0.03,-0.73 l -0.15,0.09 c -0.16,0.09 -0.33,0.15 -0.5,0.2 -0.19,0.05 -0.38,0.07 -0.58,0.07 -0.42,0 -0.83,-0.11 -1.2,-0.34 -0.67,-0.41 -1.06,-1.12 -1.04,-1.9 0.03,-1.39 0.82,-2.37 1.58,-3.32 0.36,-0.45 0.74,-0.92 1.02,-1.42 0.89,-1.6 1.1,-3.34 0.62,-5.17 -0.21,-0.8 -0.69,-1.52 -1.2,-2.29 -0.19,-0.29 -0.37,-0.56 -0.55,-0.86 0,0 -0.4,0.18 -0.66,0.12 -0.07,-0.02 -0.14,-0.05 -0.22,-0.1 -0.61,-0.38 -1.26,-1.93 -1.23,-3.79 0.02,-1.48 0.37,-2.71 1.06,-3.72 -0.15,0.42 -0.28,0.86 -0.36,1.3 -0.09,0.48 -0.12,0.98 -0.09,1.46 0.03,0.49 0.13,0.96 0.29,1.4 -0.07,-0.47 -0.07,-0.94 -0.01,-1.4 0.06,-0.46 0.18,-0.9 0.35,-1.32 0.15,-0.37 0.33,-0.73 0.54,-1.07 -0.14,0.86 -0.14,1.73 0.09,2.81 0.14,0.67 0.43,1.31 0.68,1.87 0.23,0.51 0.4,0.92 0.47,1.26 0.08,0.37 0.03,0.65 -0.22,0.88 0.04,0.07 0.09,0.14 0.13,0.21 0.11,0.17 0.23,0.35 0.35,0.53 0.52,0.79 1.06,1.6 1.3,2.52 0.52,2 0.28,3.98 -0.69,5.73 -0.31,0.56 -0.71,1.05 -1.09,1.53 -0.71,0.89 -1.39,1.73 -1.42,2.87 -0.01,0.52 0.24,0.97 0.68,1.24 0.46,0.28 1.01,0.3 1.48,0.07 0.01,-0.01 0.03,-0.01 0.04,-0.02 0.36,-0.19 0.68,-0.55 0.87,-0.97 0.01,-0.02 0.01,-0.04 0.02,-0.06 0.23,-0.67 0.51,-1.33 0.83,-1.96 0.94,-1.88 2.11,-3.64 2.85,-5.62 0.64,-1.7 0.35,-3.77 0.35,-3.77 -0.65,0.26 -1.6,0.29 -1.6,0.29 0.03,-2.12 -4.52,-7.04 -1.75,-13.04 0.19,0.31 0.44,0.63 0.79,0.96 l 0.25,0.24 v -0.87 c -1.45,-1.5 -0.78,-2.93 -0.24,-3.41 0.41,0.15 0.88,0.6 1.23,1.15 l 0.61,-0.2 c -0.15,-0.25 -0.32,-0.49 -0.51,-0.71 0.06,-0.04 0.12,-0.07 0.19,-0.08 0.03,0 0.07,-0.01 0.12,-0.01 0.91,0 4.33,0.79 4.67,0.97 l 0.3,0.91 c 0.93,0.25 1.79,0.75 2.4,1.08 -0.1,0.26 -0.38,0.85 -0.94,0.79 0,0 0.55,0.33 0.44,0.85 -0.18,0.38 -0.41,0.77 -0.7,1.11 l -0.56,-0.56 c -0.66,-0.61 -1.24,-0.83 -1.72,-0.83 -0.63,0 -1.07,0.4 -1.25,0.86 -0.28,0.7 -0.25,1.26 -0.15,1.62 0.08,0.27 0.3,0.49 0.8,0.53 0.09,0.01 0.19,0.01 0.29,0.01 1.03,0 2.38,-0.37 2.38,-0.37 0.21,1.12 0.34,1.34 -1.26,1.34 -0.37,0 -0.83,-0.01 -1.4,-0.03 l 1.6,0.73 c 0.18,-0.01 0.35,-0.02 0.52,-0.02 1.18,0 2.12,0.35 2.86,0.92 0.17,0.13 0.33,0.27 0.48,0.42 0.57,0.58 0.98,1.3 1.27,2.06 0.08,0.22 0.15,0.44 0.21,0.66 0.31,1.16 0.35,2.37 0.19,3.34 -0.12,-0.15 -0.24,-0.29 -0.38,-0.43 L 46.62,26.75 C 46.14,26.28 45.33,25.47 44.36,24.97 44,24.65 43.66,24.33 43.33,23.98 42.62,23.23 41.99,22.4 41.52,21.46 c 0.29,1.01 0.78,1.98 1.36,2.87 0.23,0.35 0.47,0.69 0.72,1.02 0.22,0.09 0.42,0.19 0.62,0.31 0.85,0.48 1.57,1.22 1.99,1.64 0.25,0.24 0.45,0.51 0.64,0.79 0.15,0.22 0.28,0.44 0.42,0.67 0.1,0.17 0.21,0.35 0.31,0.52 0.45,0.73 1.05,1.45 1.39,1.45 0.12,0 0.21,-0.09 0.25,-0.29 0.18,-0.91 0.75,-1.31 1.37,-1.31 0.29,0 0.59,0.09 0.86,0.25 l -0.62,0.58 c 0.37,0.44 -0.02,1.11 -0.42,1.33 -0.43,0.23 -0.2,0.63 0.11,0.63 0.1,0 0.2,-0.04 0.3,-0.13 0.26,-0.24 0.6,-0.36 0.93,-0.36 0.7,0 1.39,0.54 1.3,1.66 l -0.54,-0.3 c -0.18,0.59 -0.6,0.84 -0.99,0.84 -0.18,0 -0.35,-0.05 -0.48,-0.15 -0.3,-0.22 -0.61,-0.45 -0.82,-0.45 -0.07,0 -0.14,0.03 -0.18,0.09 -0.16,0.22 0.01,0.44 0.58,0.72 1.01,0.5 1.17,1.97 -0.32,2.25 L 50.14,35.18 C 50.07,35.2 50,35.21 49.93,35.21 49.5,35.21 49.2,34.83 49.15,34.55 49.08,34.14 49.1,33.89 49.08,33.63 49.07,33.4 48.92,33.3 48.77,33.3 c -0.18,0 -0.36,0.13 -0.38,0.36 -0.03,0.43 -0.02,0.99 -0.78,1.12 l -0.24,0.77 c -0.72,-0.25 -1.44,-1.08 -0.13,-2.48 0.02,-0.71 -0.73,-1.12 -1.78,-1.71 -0.18,-0.1 -0.37,-0.21 -0.56,-0.32 l -0.3,-0.18 c -0.21,-0.13 -1.02,-0.72 -1.73,-1.33 l -0.62,0.33 c 0.13,0.11 0.27,0.23 0.43,0.37 0.64,0.53 1.33,1.05 1.59,1.2 l 0.15,0.09 c -0.68,0.63 -1.41,1.18 -2.07,1.62 -0.27,0.18 -0.53,0.35 -0.77,0.5 -0.24,0.15 -0.47,0.28 -0.66,0.39 -0.53,0.3 -0.95,0.67 -1.27,1.09 -0.21,0.27 -0.37,0.56 -0.49,0.85 -0.12,0.28 -0.2,0.57 -0.24,0.86 -0.02,0.1 -0.03,0.19 -0.04,0.29 -0.02,0.27 -0.01,0.53 0.02,0.78 0.04,0.27 0.07,0.54 0.11,0.81 0.05,0.41 0.09,0.81 0.12,1.22 0.04,0.48 0.06,0.95 0.06,1.42 0,1.44 -0.22,2.47 -1.22,3.45 -0.72,0.71 -1.73,0.88 -2.71,0.95 -0.51,0.03 -1.94,0.24 -2.91,0.39 -0.56,0.08 -0.98,0.55 -1.01,1.12 -0.04,0.77 -0.03,1.78 0.24,2.12 L 32.9,49.2 c 0.31,-0.46 1.05,-0.82 1.77,-0.82 0.56,0 1.11,0.22 1.42,0.8 0.09,0.17 0.17,0.37 0.21,0.61 0.01,0.07 0.02,0.14 0.03,0.22 l -0.42,-0.17 -0.24,-0.1 c -0.01,0.06 -0.02,0.11 -0.03,0.16 -0.14,0.58 -0.44,0.79 -0.8,0.79 -0.17,0 -0.35,-0.05 -0.54,-0.12 -0.02,-0.01 -0.04,-0.02 -0.07,-0.03 -0.34,-0.14 -0.58,-0.25 -0.76,-0.25 -0.12,0 -0.21,0.05 -0.29,0.19 -0.11,0.19 0,0.35 0.19,0.48 0.06,0.04 0.14,0.08 0.21,0.11 1.01,0.42 1.3,1.4 0.37,2.42 l -0.7,-0.62 c -0.11,0.07 -0.22,0.1 -0.32,0.1 -0.34,0 -0.65,-0.31 -0.73,-0.54 -0.13,-0.35 0.01,-0.75 0.06,-1.04 0.01,-0.08 0.02,-0.16 0.01,-0.22 -0.02,-0.16 -0.13,-0.29 -0.26,-0.36 -0.06,-0.03 -0.12,-0.05 -0.19,-0.05 -0.06,0 -0.12,0.01 -0.18,0.04 -0.06,0.03 -0.11,0.07 -0.15,0.12 -0.09,0.11 -0.11,0.26 -0.11,0.41 0,0.08 0,0.17 -0.01,0.25 -0.02,0.14 -0.06,0.27 -0.18,0.38 -0.06,0.05 -0.12,0.09 -0.18,0.13 -0.04,0.02 -0.23,0.11 -0.24,0.15 l -0.09,0.98 c -0.7,-0.17 -1.47,-0.51 -1.28,-1.6 0.03,-0.18 0.09,-0.39 0.19,-0.62 0.03,-0.08 0.07,-0.17 0.12,-0.26 -0.6,-0.3 -1,-0.87 -1.1,-1.54 z M 40.54,16.97 c 0.36,0 0.73,0.09 1.12,0.23 0.42,-0.26 0.51,-0.59 0.67,-0.61 0.12,-0.01 0.17,0.33 0.11,0.65 0,0 -0.59,0.13 -0.98,0.19 -0.39,0.07 -0.83,0.13 -1.22,0.13 -0.09,0 -0.17,0 -0.24,-0.01 -0.19,-0.02 -0.25,-0.06 -0.25,-0.07 v -0.01 c -0.02,-0.06 -0.04,-0.15 -0.04,-0.27 0.25,-0.16 0.53,-0.23 0.83,-0.23 z m -0.77,-0.43 c 0.02,-0.09 0.06,-0.19 0.1,-0.29 0.04,-0.11 0.22,-0.46 0.67,-0.46 0.26,0 0.69,0.11 1.28,0.66 l 0.24,0.25 c -0.53,-0.17 -1.05,-0.31 -1.53,-0.31 -0.26,0 -0.51,0.05 -0.76,0.15 z m 7.77,28.29 1.07,-0.36 0.53,-0.18 0.3,-0.1 c 0.48,-0.68 1.26,-1.16 2,-1.16 0.72,0 1.41,0.46 1.75,1.65 l -0.75,-0.16 c 0,0.77 -0.25,0.97 -0.64,0.97 -0.08,0 -0.17,-0.01 -0.26,-0.02 -0.11,-0.02 -0.22,-0.04 -0.34,-0.06 -0.37,-0.07 -0.64,-0.15 -0.83,-0.15 -0.18,0 -0.3,0.07 -0.37,0.26 -0.1,0.29 0.18,0.47 0.54,0.56 0.88,0.2 1.38,0.82 1.22,1.65 -0.04,0.19 -0.1,0.38 -0.21,0.59 -0.04,0.09 -0.09,0.17 -0.15,0.26 0,0 -0.01,0 -0.01,0.01 l -0.87,-0.53 c -0.13,0.13 -0.28,0.18 -0.43,0.18 -0.33,0 -0.65,-0.24 -0.77,-0.45 l -0.03,-0.06 c -0.1,-0.2 -0.11,-0.43 -0.11,-0.64 0,-0.12 0.01,-0.24 0.01,-0.35 0,-0.13 0,-0.24 -0.03,-0.32 -0.05,-0.16 -0.18,-0.27 -0.32,-0.33 -0.05,-0.02 -0.11,-0.03 -0.16,-0.03 -0.09,0 -0.18,0.03 -0.26,0.09 -0.21,0.15 -0.21,0.38 -0.18,0.61 0.03,0.24 0.07,0.46 -0.06,0.66 -0.01,0.02 -0.02,0.03 -0.03,0.05 -0.05,0.06 -0.11,0.12 -0.17,0.17 -0.04,0.03 -0.22,0.16 -0.22,0.21 l 0.09,1.06 c -0.56,-0.04 -1.18,-0.16 -1.48,-0.67 -0.06,-0.1 -0.11,-0.23 -0.14,-0.36 -0.11,-0.39 -0.16,-0.87 -0.22,-1.54 -0.25,-0.1 -0.47,-0.23 -0.66,-0.4 -0.24,-0.21 -0.43,-0.47 -0.54,-0.8 -0.3,-0.9 -0.56,-2.7 -0.16,-4.6 0,0 -4.03,-0.5 -4.9,-0.94 -0.06,-0.63 -0.13,-1.24 -0.21,-1.79 -0.01,-0.1 -0.02,-0.2 -0.02,-0.31 0.19,0.11 0.41,0.17 0.63,0.17 0.2,0 0.38,-0.05 0.56,-0.14 0.35,-0.18 0.59,-0.51 0.66,-0.9 0.05,-0.25 0.02,-0.51 -0.08,-0.74 0,0 0,-0.01 0.01,-0.01 0.27,-0.05 0.57,-0.09 0.9,-0.13 0.55,-0.06 1.05,-0.09 1.51,-0.09 4.3,0 4.65,2.36 4.65,2.36 0.67,2.51 -1.34,3.64 -1.34,3.64 0,0 -0.5,2.3 0.52,3.17 z m -10.59,3.25 c 0,0.07 0.04,0.61 0.42,1.19 -0.21,-0.05 -0.4,-0.08 -0.58,-0.1 -0.34,-0.9 -1.1,-1.43 -2.11,-1.43 -0.8,0 -1.62,0.34 -2.1,0.86 L 32,48.68 C 31.96,48.43 31.93,48 31.97,47.29 c 0.01,-0.27 0.22,-0.49 0.48,-0.53 1.47,-0.22 2.49,-0.36 2.86,-0.38 1.04,-0.07 2.22,-0.26 3.1,-1.13 0.55,-0.54 0.93,-1.14 1.14,-1.81 0.18,-0.57 0.26,-1.21 0.26,-2.09 0,-0.35 -0.01,-0.7 -0.03,-1.05 0.15,0.05 0.33,0.1 0.53,0.15 0.44,0.11 1.04,0.23 1.77,0.35 0.67,0.11 1.34,0.21 1.81,0.27 -0.24,1.75 -0.01,3.35 0.3,4.26 0.2,0.6 0.61,1.08 1.2,1.41 0,0.64 0.2,1.28 0.2,1.3 -0.45,-0.23 -1.14,-0.49 -1.94,-0.49 -0.33,0 -0.66,0.05 -0.97,0.13 -0.2,0.06 -0.39,0.12 -0.58,0.17 -0.7,0.21 -1.35,0.42 -2.04,0.42 -0.73,0 -1.42,-0.23 -2.16,-0.74 l -1.03,-0.7 z m 3.68,-12.05 c 0.22,0.34 0.1,0.78 -0.23,0.95 -0.09,0.05 -0.18,0.07 -0.27,0.07 -0.22,0 -0.43,-0.12 -0.55,-0.31 0.02,-0.11 0.06,-0.23 0.09,-0.34 0.1,-0.3 0.25,-0.59 0.46,-0.87 0.27,-0.36 0.63,-0.69 1.11,-0.96 0.07,-0.04 0.15,-0.09 0.24,-0.14 -0.32,0.39 -0.51,0.67 -0.63,0.91 -0.13,0.24 -0.19,0.43 -0.28,0.61 0.01,0.02 0.04,0.05 0.06,0.08 z m 4.03,-3.89 0.33,-0.3 c 0.08,0.04 0.15,0.09 0.23,0.13 0.59,0.33 1.15,0.65 1.33,0.92 -0.43,0.53 -0.81,1.25 -0.62,2 0.04,0.16 0.11,0.32 0.2,0.46 -0.65,-0.19 -1.45,-0.31 -2.44,-0.31 l -2.01,0.14 c 0.17,-0.24 0.41,-0.53 0.78,-0.91 l 1.38,-1.44 0.01,-0.01 c 0.26,-0.21 0.54,-0.44 0.81,-0.68 z m -8.92,21.39 c -1.03,1.1 -2.42,1.61 -3.85,1.61 -2.45,0 -4.98,-1.51 -5.87,-4.17 0,0 1.21,0.41 2.77,0.59 -0.07,0.43 -0.03,0.81 0.13,1.15 0.34,0.72 1.09,0.98 1.62,1.12 l 0.71,0.18 0.07,-0.73 0.07,-0.68 c 0.06,-0.04 0.13,-0.09 0.19,-0.14 0.01,0.06 0.03,0.12 0.05,0.18 0.17,0.47 0.71,0.95 1.32,0.95 0.06,0 0.12,0 0.18,-0.01 l 0.43,0.38 0.46,0.41 0.42,-0.46 c 0.59,-0.64 0.83,-1.36 0.68,-2.02 -0.05,-0.21 -0.13,-0.41 -0.25,-0.59 0.37,0 0.7,-0.14 0.95,-0.4 0.09,-0.1 0.18,-0.21 0.24,-0.34 l 0.04,0.01 0.97,0.4 -0.11,-1.04 c 0,-0.04 -0.01,-0.07 -0.01,-0.11 0.43,0.07 0.95,0.23 1.61,0.48 0.09,0.05 0.19,0.09 0.28,0.12 0.05,0.02 0.09,0.04 0.14,0.05 -0.21,0.12 -0.42,0.24 -0.61,0.36 -0.95,0.61 -1.6,1.27 -1.94,1.96 -0.21,0.24 -0.44,0.48 -0.69,0.74 z m 7.41,-2.17 c -0.69,0.58 -1.65,0.7 -2.52,0.76 -2.64,0.2 -3.72,2.58 -3.72,2.58 -0.22,-0.55 -0.18,-1.07 0.03,-1.54 0.32,-0.72 1.04,-1.34 1.8,-1.82 1.27,-0.8 2.67,-1.25 2.67,-1.25 -0.25,0.02 -0.48,0.03 -0.7,0.03 -0.55,0 -1,-0.07 -1.37,-0.18 -0.21,-0.06 -0.4,-0.14 -0.56,-0.22 -1.17,-0.6 -1.21,-1.67 -1.21,-1.67 0.93,0.63 1.75,0.85 2.51,0.85 0.98,0 1.87,-0.35 2.78,-0.61 0.27,-0.08 0.54,-0.11 0.8,-0.11 0.75,0 1.4,0.28 1.77,0.48 -0.47,0.29 -0.87,0.66 -1.18,1.13 -0.12,0.19 -0.23,0.38 -0.32,0.56 -0.29,0.41 -0.48,0.77 -0.78,1.01 z m 4.39,-0.91 c -0.92,0.21 -1.78,0.74 -2.07,1.69 -0.17,0.55 -0.14,1.15 -0.11,1.72 0,0 -1.88,-1.07 -0.88,-3.18 0.08,-0.17 0.19,-0.36 0.31,-0.55 0.24,-0.37 0.53,-0.63 0.8,-0.83 0.1,-0.06 0.2,-0.11 0.31,-0.17 l 0.28,-0.14 c 0.48,0.41 1.13,0.51 1.61,0.54 l 0.73,0.05 -0.06,-0.73 -0.06,-0.76 c 0.08,-0.07 0.16,-0.15 0.24,-0.25 0,-0.01 0.01,-0.01 0.01,-0.02 0.03,0.09 0.07,0.18 0.12,0.26 0.22,0.38 0.74,0.76 1.31,0.76 0.15,0 0.29,-0.03 0.43,-0.08 l 0.33,0.2 c -0.02,0.02 -0.05,0.04 -0.07,0.06 -1.07,1.01 -1.86,1.12 -3.23,1.43 z m 28.37,3.48 c 0,0 0.54,-2.39 -0.61,-3.15 -1.84,-1.2 -2.82,-0.17 -4.88,-1.74 -0.02,-0.03 -0.05,-0.05 -0.07,-0.08 -0.97,-0.98 -2.04,-1.6 -3.01,-1.93 -0.67,0.11 -1.41,0.19 -2.23,0.23 0.16,0.01 0.32,0.02 0.49,0.04 0.29,0.03 0.6,0.08 0.92,0.15 0.49,0.11 1.01,0.28 1.53,0.53 0.63,0.31 1.26,0.81 1.85,1.41 0.04,0.04 0.07,0.07 0.1,0.11 1.28,1.39 0.94,2.75 0.94,2.75 0,0 -1.64,-2.18 -4.09,-2.18 -1.17,0 -2.18,0.39 -2.7,0.65 l -0.38,0.2 -0.38,-0.2 c -0.52,-0.25 -1.53,-0.65 -2.7,-0.65 -2.45,0 -4.09,2.18 -4.09,2.18 0,0 -0.35,-1.36 0.94,-2.75 0.03,-0.04 0.07,-0.07 0.1,-0.11 0.59,-0.6 1.22,-1.11 1.85,-1.41 0.52,-0.25 1.04,-0.42 1.53,-0.53 0.32,-0.07 0.63,-0.12 0.92,-0.15 0.17,-0.02 0.34,-0.03 0.5,-0.04 -0.82,-0.04 -1.56,-0.12 -2.24,-0.23 -0.97,0.33 -2.04,0.94 -3.01,1.93 -0.03,0.03 -0.05,0.05 -0.07,0.08 -2.06,1.57 -3.04,0.54 -4.88,1.74 -1.15,0.75 -0.61,3.15 -0.61,3.15 0,0 -2.43,-1.84 -0.23,-4.27 0.46,-0.51 1.02,-0.93 1.43,-1.21 0.34,-0.23 0.58,-0.36 0.58,-0.36 0,0 -0.2,-0.02 -0.46,-0.07 -0.14,-0.02 -0.31,-0.06 -0.49,-0.1 -0.03,-0.01 -0.07,-0.02 -0.11,-0.03 0.09,-0.43 0.06,-0.85 -0.09,-1.22 -0.06,-0.15 -0.15,-0.3 -0.25,-0.43 0.95,0.26 2.12,0.46 3.45,0.46 0.51,0 1.04,-0.11 1.6,-0.17 0.19,-0.02 0.4,-0.03 0.61,-0.03 0.07,0 0.14,0 0.21,0.01 -0.52,-0.16 -0.98,-0.34 -1.4,-0.52 -0.34,0.05 -0.68,0.1 -1.02,0.1 -1.05,0 -1.99,-0.13 -2.8,-0.32 0.15,-0.15 0.24,-0.32 0.3,-0.51 l 0.09,0.02 1.02,0.22 -0.29,-1.01 c -0.54,-1.9 -1.82,-2.1 -2.35,-2.1 -0.85,0 -1.77,0.49 -2.38,1.26 l -1.3,0.44 c -0.29,-0.53 -0.27,-1.47 -0.19,-2.06 0.23,-0.17 0.56,-0.46 0.86,-0.89 0.46,-0.65 0.92,-1.74 0.52,-3.26 -0.04,-0.2 -0.25,-0.97 -1.07,-1.65 l 0.15,-0.49 0.13,-0.43 c 0.2,-0.08 0.36,-0.2 0.48,-0.33 0.18,0.37 0.53,0.71 0.97,0.82 l 0.07,0.38 0.11,0.66 0.65,-0.12 c 0.9,-0.17 1.5,-0.73 1.61,-1.49 0.05,-0.34 -0.01,-0.69 -0.16,-1.01 0.34,-0.08 0.65,-0.27 0.88,-0.56 l 0.85,0.48 0.08,-1.02 c 0.07,-0.89 -0.25,-1.45 -0.53,-1.75 -0.36,-0.39 -0.88,-0.61 -1.42,-0.61 -0.06,0 -0.11,0 -0.17,0.01 0.01,-0.05 0.03,-0.1 0.04,-0.15 0.03,-0.17 0.03,-0.34 0,-0.51 l 0.29,-0.27 0.64,-0.6 -0.75,-0.45 c -0.38,-0.23 -0.79,-0.35 -1.2,-0.35 -0.68,0 -1.46,0.35 -1.85,1.29 -0.16,-0.19 -0.37,-0.46 -0.6,-0.83 l -0.27,-0.45 c -0.1,-0.17 -0.21,-0.35 -0.32,-0.52 v -0.01 c 0.33,-1.24 0.32,-2.94 -0.17,-4.52 l 1.23,-1.17 c 0.12,0.14 0.27,0.25 0.43,0.33 0.23,0.12 0.44,0.18 0.68,0.18 h 0.01 l 0.65,-0.01 v -0.8 c 0.02,-0.02 0.05,-0.04 0.07,-0.06 0.18,-0.17 0.29,-0.38 0.33,-0.62 l 0.6,0.01 0.6,0.01 0.03,-0.6 C 52.02,20.49 52,20.32 51.97,20.15 h 0.22 l 0.6,0.01 0.03,-0.6 C 52.83,19.29 52.79,19.03 52.7,18.8 h 0.66 l -0.02,-0.64 c -0.01,-0.5 -0.27,-0.98 -0.69,-1.28 -0.37,-0.27 -0.79,-0.37 -1.12,-0.4 v -1.46 h 24.44 v 1.45 c -0.33,0.03 -0.77,0.13 -1.15,0.41 -0.42,0.31 -0.68,0.79 -0.69,1.28 l -0.02,0.64 h 0.66 c -0.09,0.23 -0.14,0.49 -0.12,0.76 l 0.03,0.6 0.6,-0.01 h 0.22 c -0.04,0.16 -0.05,0.34 -0.04,0.52 l 0.03,0.6 0.6,-0.01 0.6,-0.01 c 0.04,0.23 0.15,0.45 0.33,0.62 0.02,0.02 0.05,0.04 0.07,0.06 v 0.8 l 0.65,0.01 h 0.01 c 0.24,0 0.45,-0.06 0.68,-0.18 0.16,-0.09 0.31,-0.2 0.43,-0.33 l 1.23,1.17 c -0.49,1.58 -0.51,3.28 -0.17,4.52 v 0.01 c -0.11,0.17 -0.22,0.35 -0.32,0.52 l -0.27,0.45 c -0.22,0.36 -0.44,0.65 -0.6,0.84 -0.39,-0.94 -1.17,-1.29 -1.85,-1.29 -0.41,0 -0.82,0.12 -1.2,0.35 l -0.75,0.45 0.64,0.6 0.29,0.27 c -0.03,0.16 -0.03,0.33 0,0.51 0.01,0.05 0.02,0.1 0.04,0.15 -0.06,0 -0.11,-0.01 -0.17,-0.01 -0.55,0 -1.07,0.22 -1.42,0.61 -0.28,0.31 -0.6,0.86 -0.53,1.75 l 0.08,1.02 0.85,-0.48 c 0.23,0.28 0.54,0.47 0.88,0.56 -0.15,0.32 -0.21,0.66 -0.16,1.01 0.11,0.77 0.71,1.33 1.61,1.49 l 0.65,0.12 0.11,-0.66 0.07,-0.38 c 0.45,-0.12 0.8,-0.45 0.97,-0.82 0.12,0.13 0.28,0.24 0.48,0.33 l 0.11,0.36 0.02,0.07 0.15,0.49 c -0.82,0.69 -1.03,1.45 -1.07,1.65 -0.4,1.52 0.06,2.61 0.52,3.26 0.3,0.43 0.63,0.72 0.86,0.89 0.08,0.59 0.1,1.53 -0.19,2.06 l -1.3,-0.44 C 77.8,42.89 76.89,42.4 76.04,42.4 c -0.53,0 -1.81,0.2 -2.35,2.1 l -0.29,1.01 1.02,-0.22 0.09,-0.02 c 0.06,0.18 0.15,0.36 0.3,0.51 -0.81,0.18 -1.75,0.32 -2.8,0.32 -0.34,0 -0.68,-0.05 -1.02,-0.1 -0.42,0.18 -0.88,0.36 -1.4,0.52 h 0.2 c 0.21,0 0.42,0.01 0.61,0.03 0.56,0.07 1.09,0.17 1.6,0.17 1.33,0 2.5,-0.2 3.45,-0.46 -0.1,0.13 -0.19,0.27 -0.25,0.43 -0.15,0.37 -0.18,0.79 -0.09,1.22 -0.04,0.01 -0.07,0.02 -0.11,0.03 -0.18,0.04 -0.35,0.08 -0.49,0.1 -0.27,0.05 -0.43,0.06 -0.43,0.06 0,0 0.24,0.13 0.58,0.36 0.41,0.28 0.96,0.7 1.43,1.21 2.25,2.42 -0.18,4.26 -0.18,4.26 z m 6.24,-0.07 C 82.18,53.29 82.2,52.69 82.04,52.14 81.75,51.19 80.89,50.67 79.97,50.45 78.6,50.13 77.81,50.03 76.74,49.04 76.72,49.02 76.69,49 76.67,48.98 L 77,48.78 c 0.13,0.05 0.28,0.08 0.43,0.08 0.58,0 1.1,-0.38 1.31,-0.76 0.05,-0.09 0.09,-0.17 0.12,-0.26 0,0.01 0.01,0.01 0.01,0.02 0.08,0.1 0.16,0.18 0.24,0.25 l -0.06,0.76 -0.06,0.73 0.73,-0.05 c 0.48,-0.03 1.12,-0.13 1.61,-0.54 l 0.28,0.14 c 0.11,0.06 0.21,0.11 0.31,0.17 0.28,0.2 0.56,0.46 0.8,0.83 0.13,0.19 0.23,0.37 0.31,0.55 1,2.09 -0.88,3.16 -0.88,3.16 z m 8.43,0.85 c 0,0 -1.07,-2.38 -3.72,-2.58 -0.87,-0.07 -1.82,-0.19 -2.52,-0.76 -0.3,-0.25 -0.49,-0.61 -0.79,-1.01 -0.09,-0.19 -0.2,-0.37 -0.32,-0.56 -0.31,-0.47 -0.7,-0.85 -1.18,-1.13 0.37,-0.2 1.01,-0.48 1.77,-0.48 0.26,0 0.52,0.03 0.8,0.11 0.92,0.26 1.8,0.61 2.78,0.61 0.76,0 1.58,-0.21 2.51,-0.85 0,0 -0.05,1.07 -1.21,1.67 -0.16,0.08 -0.35,0.16 -0.56,0.22 -0.37,0.11 -0.83,0.18 -1.37,0.18 -0.22,0 -0.45,-0.01 -0.7,-0.03 0,0 1.4,0.45 2.67,1.25 0.77,0.49 1.48,1.1 1.8,1.82 0.22,0.47 0.27,0.98 0.04,1.54 z m 5.04,0.43 c -1.43,0 -2.83,-0.51 -3.85,-1.61 -0.25,-0.26 -0.47,-0.51 -0.69,-0.73 -0.34,-0.7 -0.99,-1.35 -1.94,-1.96 -0.19,-0.12 -0.39,-0.24 -0.61,-0.36 0.05,-0.02 0.09,-0.04 0.14,-0.05 0.1,-0.04 0.19,-0.08 0.28,-0.12 0.66,-0.26 1.18,-0.41 1.61,-0.48 0,0.04 -0.01,0.07 -0.01,0.11 l -0.11,1.04 0.97,-0.4 0.04,-0.01 c 0.07,0.13 0.15,0.24 0.24,0.34 0.25,0.26 0.58,0.4 0.95,0.4 -0.12,0.18 -0.2,0.38 -0.25,0.59 -0.15,0.66 0.1,1.38 0.68,2.02 l 0.42,0.46 0.46,-0.41 0.43,-0.38 c 0.06,0.01 0.12,0.01 0.18,0.01 0.61,0 1.15,-0.48 1.32,-0.95 0.02,-0.06 0.04,-0.12 0.05,-0.18 0.07,0.05 0.13,0.1 0.19,0.14 l 0.07,0.68 0.07,0.73 0.71,-0.18 c 0.53,-0.13 1.28,-0.4 1.62,-1.12 0.16,-0.34 0.2,-0.72 0.13,-1.15 1.55,-0.18 2.77,-0.59 2.77,-0.59 -0.9,2.66 -3.43,4.16 -5.87,4.16 z M 41.18,12.89 c -0.91,0.25 -2.06,0.01 -2.06,0.01 0.7,0.69 0.93,1.11 0.93,1.11 0.92,0.05 1.13,-0.55 1.13,-1.12 z m 45.15,0 c 0,0.57 0.21,1.17 1.13,1.13 0,0 0.24,-0.42 0.93,-1.11 0,0 -1.15,0.23 -2.06,-0.02 z m 0.55,12.32 0.48,-0.81 c 0.26,-0.44 0.5,-0.91 0.71,-1.39 0.2,-0.48 0.37,-0.96 0.52,-1.45 0.16,-0.48 0.3,-0.97 0.44,-1.46 -0.22,0.46 -0.44,0.91 -0.68,1.36 -0.23,0.45 -0.47,0.89 -0.73,1.31 -0.27,0.42 -0.56,0.81 -0.88,1.19 -0.28,0.34 -0.58,0.69 -0.87,1.03 0.33,0.04 0.67,0.1 1.01,0.22 z m -47.44,-2.2 c 0.2,0.48 0.45,0.95 0.71,1.39 l 0.48,0.81 c 0.34,-0.12 0.68,-0.19 1.01,-0.21 -0.29,-0.34 -0.59,-0.69 -0.87,-1.03 -0.32,-0.39 -0.61,-0.78 -0.88,-1.19 -0.26,-0.42 -0.5,-0.86 -0.73,-1.31 -0.23,-0.45 -0.45,-0.91 -0.68,-1.36 0.14,0.49 0.29,0.97 0.44,1.46 0.15,0.48 0.32,0.96 0.52,1.44 z m -0.15,2.9 c -0.77,-1.11 -1.51,-2.24 -2.13,-3.43 -0.34,-0.65 -0.64,-1.32 -0.88,-2.01 -0.25,-0.69 -0.45,-1.4 -0.61,-2.12 0.08,0.74 0.19,1.47 0.36,2.2 0.17,0.73 0.4,1.44 0.67,2.14 0.27,0.7 0.58,1.38 0.9,2.05 0.26,0.53 0.53,1.05 0.8,1.57 0.26,-0.08 0.56,-0.21 0.89,-0.4 z m 49.8,0.4 c 0.28,-0.52 0.55,-1.04 0.8,-1.57 0.33,-0.67 0.64,-1.35 0.9,-2.05 0.27,-0.7 0.49,-1.42 0.67,-2.14 0.17,-0.73 0.29,-1.46 0.36,-2.2 -0.16,0.72 -0.36,1.43 -0.61,2.12 -0.25,0.69 -0.55,1.36 -0.88,2.01 -0.62,1.19 -1.36,2.32 -2.13,3.43 0.35,0.19 0.64,0.32 0.89,0.4 z"
       id="path6" /><g
       id="g7"
       transform="translate(0,10)"><path
         class="st1"
         d="m 44.49,51.55 c -0.78,0 -1.36,0.3 -1.74,0.9 -0.35,-0.6 -0.89,-0.9 -1.61,-0.9 -0.72,0 -1.26,0.28 -1.62,0.83 V 51.7 h -1.23 v 5.67 h 1.23 v -3.18 c 0,-0.49 0.12,-0.86 0.35,-1.12 0.23,-0.25 0.54,-0.38 0.91,-0.38 0.34,0 0.6,0.11 0.79,0.32 0.19,0.22 0.28,0.52 0.28,0.91 v 3.44 h 1.23 v -3.18 c 0,-0.5 0.11,-0.87 0.33,-1.12 0.22,-0.25 0.52,-0.37 0.9,-0.37 0.34,0 0.61,0.11 0.81,0.32 0.2,0.22 0.3,0.52 0.3,0.91 v 3.44 h 1.23 v -3.52 c 0,-0.7 -0.2,-1.26 -0.59,-1.68 -0.41,-0.4 -0.93,-0.61 -1.57,-0.61 z m 53.62,0 c -0.8,0 -1.39,0.29 -1.76,0.87 v -3 h -1.23 v 7.94 h 1.23 v -3.04 c 0,-0.55 0.13,-0.96 0.4,-1.23 0.26,-0.27 0.61,-0.4 1.04,-0.4 0.39,0 0.7,0.11 0.93,0.34 0.23,0.23 0.34,0.55 0.34,0.98 v 3.36 h 1.23 v -3.48 c 0,-0.73 -0.2,-1.3 -0.6,-1.71 -0.41,-0.42 -0.93,-0.63 -1.58,-0.63 z m -71.18,2.88 h 2.66 c -0.12,0.55 -0.4,0.99 -0.85,1.32 -0.44,0.33 -1.02,0.49 -1.72,0.49 -0.88,0 -1.59,-0.27 -2.13,-0.81 -0.54,-0.54 -0.81,-1.21 -0.81,-2.03 0,-0.82 0.27,-1.5 0.81,-2.04 0.54,-0.54 1.22,-0.82 2.05,-0.82 0.51,0 0.98,0.12 1.4,0.35 0.42,0.23 0.73,0.54 0.94,0.91 l 0.9,-0.97 c -0.32,-0.42 -0.72,-0.78 -1.21,-1.05 -0.61,-0.34 -1.29,-0.51 -2.03,-0.51 -1.18,0 -2.17,0.4 -2.97,1.2 -0.8,0.8 -1.2,1.77 -1.2,2.92 0,1.16 0.4,2.13 1.2,2.93 0.8,0.79 1.81,1.19 3.04,1.19 1.16,0 2.1,-0.35 2.81,-1.04 0.72,-0.69 1.08,-1.58 1.08,-2.67 v -0.53 h -3.97 z m 77.64,-1.55 V 51.7 h -1.41 v -1.59 h -1.23 v 1.59 h -1.04 v 1.18 h 1.04 v 2.72 c 0,0.74 0.2,1.25 0.61,1.53 0.41,0.28 1.08,0.36 2.02,0.24 v -1.1 c -0.31,0.02 -0.57,0.02 -0.78,0.01 -0.21,-0.01 -0.37,-0.07 -0.47,-0.17 -0.11,-0.1 -0.16,-0.27 -0.16,-0.51 V 52.88 Z M 34.6,51.55 c -0.88,0 -1.6,0.29 -2.16,0.86 -0.55,0.57 -0.83,1.28 -0.83,2.13 0,0.86 0.28,1.58 0.85,2.14 0.57,0.56 1.31,0.85 2.24,0.85 0.98,0 1.75,-0.34 2.3,-1 L 36.17,55.7 c -0.33,0.47 -0.81,0.7 -1.46,0.7 -0.47,0 -0.87,-0.12 -1.19,-0.35 -0.33,-0.23 -0.53,-0.56 -0.62,-0.99 h 4.52 c 0.03,-0.21 0.05,-0.38 0.05,-0.51 0,-0.83 -0.27,-1.54 -0.8,-2.12 -0.55,-0.59 -1.24,-0.88 -2.07,-0.88 z m -1.72,2.51 c 0.08,-0.43 0.28,-0.77 0.58,-1.02 0.3,-0.25 0.68,-0.37 1.13,-0.37 0.4,0 0.75,0.12 1.05,0.35 0.3,0.23 0.49,0.58 0.57,1.04 z m 17.59,-2.51 c -0.88,0 -1.6,0.29 -2.16,0.86 -0.56,0.57 -0.84,1.28 -0.84,2.13 0,0.86 0.28,1.58 0.85,2.14 0.57,0.56 1.31,0.85 2.24,0.85 0.98,0 1.75,-0.34 2.3,-1 L 52.03,55.7 c -0.33,0.47 -0.81,0.7 -1.46,0.7 -0.47,0 -0.87,-0.12 -1.19,-0.35 -0.33,-0.23 -0.53,-0.56 -0.62,-0.99 h 4.52 c 0.03,-0.21 0.05,-0.38 0.05,-0.51 0,-0.83 -0.27,-1.54 -0.8,-2.12 -0.55,-0.59 -1.23,-0.88 -2.06,-0.88 z m -1.73,2.51 c 0.08,-0.43 0.28,-0.77 0.58,-1.02 0.3,-0.25 0.68,-0.37 1.13,-0.37 0.4,0 0.75,0.12 1.05,0.35 0.3,0.23 0.49,0.58 0.57,1.04 z m 8.13,-2.51 c -0.88,0 -1.6,0.29 -2.16,0.86 -0.56,0.57 -0.84,1.28 -0.84,2.13 0,0.86 0.28,1.58 0.85,2.14 0.57,0.56 1.31,0.85 2.24,0.85 0.98,0 1.75,-0.34 2.3,-1 L 58.43,55.7 c -0.33,0.47 -0.81,0.7 -1.46,0.7 -0.47,0 -0.87,-0.12 -1.19,-0.35 -0.33,-0.23 -0.53,-0.56 -0.62,-0.99 h 4.52 c 0.03,-0.21 0.05,-0.38 0.05,-0.51 0,-0.83 -0.27,-1.54 -0.8,-2.12 -0.54,-0.59 -1.22,-0.88 -2.06,-0.88 z m -1.72,2.51 c 0.08,-0.43 0.28,-0.77 0.58,-1.02 0.3,-0.25 0.68,-0.37 1.13,-0.37 0.4,0 0.75,0.12 1.05,0.35 0.3,0.23 0.49,0.58 0.57,1.04 z m 18.37,-2.51 c -0.88,0 -1.6,0.29 -2.16,0.86 -0.56,0.57 -0.84,1.28 -0.84,2.13 0,0.86 0.28,1.58 0.85,2.14 0.57,0.56 1.31,0.85 2.24,0.85 0.98,0 1.75,-0.34 2.3,-1 L 75.08,55.7 c -0.33,0.47 -0.81,0.7 -1.46,0.7 -0.47,0 -0.87,-0.12 -1.19,-0.35 -0.33,-0.23 -0.53,-0.56 -0.62,-0.99 h 4.52 c 0.03,-0.21 0.05,-0.38 0.05,-0.51 0,-0.83 -0.27,-1.54 -0.8,-2.12 -0.54,-0.59 -1.23,-0.88 -2.06,-0.88 z m -1.72,2.51 c 0.08,-0.43 0.28,-0.77 0.58,-1.02 0.3,-0.25 0.68,-0.37 1.13,-0.37 0.4,0 0.75,0.12 1.05,0.35 0.3,0.23 0.49,0.58 0.57,1.04 z m 13.67,-2.51 c -0.88,0 -1.6,0.29 -2.16,0.86 -0.56,0.57 -0.84,1.28 -0.84,2.13 0,0.86 0.28,1.58 0.85,2.14 0.57,0.56 1.31,0.85 2.24,0.85 0.98,0 1.75,-0.34 2.3,-1 L 87.03,55.7 c -0.33,0.47 -0.81,0.7 -1.46,0.7 -0.47,0 -0.87,-0.12 -1.19,-0.35 -0.33,-0.23 -0.53,-0.56 -0.62,-0.99 h 4.52 c 0.03,-0.21 0.05,-0.38 0.05,-0.51 0,-0.83 -0.27,-1.54 -0.8,-2.12 -0.54,-0.59 -1.22,-0.88 -2.06,-0.88 z m -1.72,2.51 c 0.08,-0.43 0.28,-0.77 0.58,-1.02 0.3,-0.25 0.68,-0.37 1.13,-0.37 0.4,0 0.75,0.12 1.05,0.35 0.3,0.23 0.49,0.58 0.57,1.04 z M 68.64,50.11 h -1.23 v 1.59 h -1.04 v 1.18 h 1.04 v 2.72 c 0,0.74 0.2,1.25 0.61,1.53 0.41,0.28 1.08,0.36 2.02,0.24 v -1.1 c -0.31,0.02 -0.57,0.02 -0.78,0.01 -0.21,-0.01 -0.37,-0.07 -0.47,-0.17 -0.11,-0.1 -0.16,-0.27 -0.16,-0.51 v -2.72 h 1.41 V 51.7 h -1.41 l 0.01,-1.59 c -0.01,0 0,0 0,0 z m -5.05,1.44 c -0.8,0 -1.39,0.29 -1.76,0.87 V 51.69 H 60.6 v 5.67 h 1.23 v -3.04 c 0,-0.55 0.13,-0.96 0.4,-1.23 0.26,-0.27 0.61,-0.4 1.04,-0.4 0.39,0 0.7,0.11 0.93,0.34 0.23,0.23 0.34,0.55 0.34,0.98 v 3.36 h 1.23 v -3.48 c 0,-0.73 -0.2,-1.3 -0.6,-1.71 -0.41,-0.42 -0.93,-0.63 -1.58,-0.63 z m 29.93,3.85 c -0.26,0.54 -0.76,0.9 -1.37,0.99 h -0.03 c -0.08,0.01 -0.17,0.02 -0.26,0.02 -1,0 -1.77,-0.77 -1.77,-1.87 0,-1.1 0.77,-1.87 1.77,-1.87 0.09,0 0.17,0.01 0.25,0.02 h 0.03 c 0.61,0.08 1.1,0.44 1.37,0.96 l 0.82,-0.82 c -0.54,-0.78 -1.44,-1.27 -2.47,-1.27 -1.66,0 -2.98,1.3 -2.98,2.99 0,1.68 1.32,2.98 2.98,2.98 1.04,0 1.94,-0.51 2.48,-1.29 z"
         id="path7"
         sodipodi:nodetypes="scscccccscscsccssscsccscsscccccscsssccscscccsssssscccssscscsccccccccccccssccscsccscsssccscccscscsssccsssssccscccscscsssccsssssccscccscscsssccsssssccscccscscsssccsssssccscccscscsssccccccccssccscsccccccscccccscsssccscscccsssccccssscc" /></g></g></svg>
